<svg xmlns="http://www.w3.org/2000/svg" width="1750" height="430" viewBox="0 0 1750 430" fill="none">
<defs>
<linearGradient id="brandGradient" x1="0%" y1="0%" x2="100%" y2="100%">
  <stop offset="0%" stop-color="#19D5D8"/>
  <stop offset="52%" stop-color="#15AFFF"/>
  <stop offset="100%" stop-color="#2563FF"/>
</linearGradient>
<linearGradient id="bgGradient" x1="0%" y1="0%" x2="100%" y2="100%">
  <stop offset="0%" stop-color="#0C2A6C"/>
  <stop offset="100%" stop-color="#04102B"/>
</linearGradient>
<radialGradient id="glow" cx="50%" cy="45%" r="60%">
  <stop offset="0%" stop-color="#1B78FF" stop-opacity="0.28"/>
  <stop offset="100%" stop-color="#1B78FF" stop-opacity="0"/>
</radialGradient>
<filter id="softShadow" x="-30%" y="-30%" width="160%" height="160%">
  <feDropShadow dx="0" dy="12" stdDeviation="20" flood-color="#001038" flood-opacity="0.28"/>
</filter>

</defs>

<g transform="translate(0 0) scale(0.78)" fill="none" stroke="url(#brandGradient)" stroke-width="34" stroke-linecap="round" stroke-linejoin="round">
<path d="M40 256 H118 L178 142 L250 370 L310 256 H352"/>
<path d="M322 196 H392 C431 196 458 222 458 256 C458 290 431 316 392 316 H350"/>
<path d="M350 256 H407"/>
</g><path d="M571 0H970L1480 1490H1143L913 771C868 621 822 449 772 246C721 447 673 621 626 771L388 1490H49Z" fill="#071B4A" transform="translate(390.000 250.000) scale(0.078125 -0.078125)"/>
<path d="M128 0H428V1118H128ZM278 1264C368 1264 443 1332 443 1418C443 1503 368 1572 278 1572C187 1572 113 1503 113 1418C113 1332 187 1264 278 1264Z" fill="#071B4A" transform="translate(509.453 250.000) scale(0.078125 -0.078125)"/>
<path d="M537 -19C719 -19 812 89 853 179H868V0H1163V1490H863V930H853C813 1019 725 1132 535 1132C287 1132 81 939 81 557C81 185 279 -19 537 -19ZM629 222C473 222 389 361 389 558C389 754 471 892 629 892C783 892 869 761 869 558C869 356 782 222 629 222Z" fill="#071B4A" transform="translate(552.812 250.000) scale(0.078125 -0.078125)"/>
<path d="M440 -22C605 -22 713 51 767 155H777V0H1061V753C1061 1024 827 1132 587 1132C337 1132 157 1021 100 827L375 781C399 853 470 910 586 910C698 910 761 856 761 761V756C761 683 682 675 490 656C270 635 68 563 68 313C68 92 227 -22 440 -22ZM525 189C426 189 356 234 356 321C356 411 430 454 541 470C607 479 726 495 763 521V400C763 282 665 189 525 189Z" fill="#071B4A" transform="translate(653.672 250.000) scale(0.078125 -0.078125)"/>
<path d="M428 1490H128V0H428Z" fill="#071B4A" transform="translate(746.562 250.000) scale(0.078125 -0.078125)"/>
<path d="M120 -396C163 -413 237 -426 316 -426C540 -426 658 -313 726 -132L1201 1118H886L690 538C658 442 632 346 609 246C588 345 568 441 538 538L350 1118H31L451 -3L443 -63C430 -175 347 -212 226 -179L189 -170Z" fill="#071B4A" transform="translate(789.922 250.000) scale(0.078125 -0.078125)"/>
<path d="M572 -22C865 -22 1072 125 1072 345C1072 504 968 603 752 647L551 687C445 709 407 748 407 804C407 871 483 917 581 917C690 917 753 863 777 787L1043 834C1001 1016 842 1132 577 1132C294 1132 107 1000 107 785C107 618 213 512 429 468L622 428C720 408 766 372 766 313C766 246 695 198 581 198C458 198 386 249 357 354L78 306C117 98 302 -22 572 -22Z" fill="#071B4A" transform="translate(886.250 250.000) scale(0.078125 -0.078125)"/><path d="M135 0H440V487H709C1052 487 1249 692 1249 987C1249 1280 1055 1490 716 1490H135ZM440 733V1238H659C846 1238 934 1137 934 987C934 837 846 733 660 733Z" fill="url(#brandGradient)" transform="translate(1001.859 250.000) scale(0.078125 -0.078125)"/>
<path d="M440 -22C605 -22 713 51 767 155H777V0H1061V753C1061 1024 827 1132 587 1132C337 1132 157 1021 100 827L375 781C399 853 470 910 586 910C698 910 761 856 761 761V756C761 683 682 675 490 656C270 635 68 563 68 313C68 92 227 -22 440 -22ZM525 189C426 189 356 234 356 321C356 411 430 454 541 470C607 479 726 495 763 521V400C763 282 665 189 525 189Z" fill="url(#brandGradient)" transform="translate(1105.531 250.000) scale(0.078125 -0.078125)"/>
<path d="M120 -396C163 -413 237 -426 316 -426C540 -426 658 -313 726 -132L1201 1118H886L690 538C658 442 632 346 609 246C588 345 568 441 538 538L350 1118H31L451 -3L443 -63C430 -175 347 -212 226 -179L189 -170Z" fill="url(#brandGradient)" transform="translate(1198.422 250.000) scale(0.078125 -0.078125)"/>
</svg>