<svg xmlns="http://www.w3.org/2000/svg" width="1600" height="1150" viewBox="0 0 1600 1150" fill="none">
<defs>
<linearGradient id="brandGradient" x1="0%" y1="0%" x2="100%" y2="100%">
  <stop offset="0%" stop-color="#19D5D8"/>
  <stop offset="52%" stop-color="#15AFFF"/>
  <stop offset="100%" stop-color="#2563FF"/>
</linearGradient>
<linearGradient id="bgGradient" x1="0%" y1="0%" x2="100%" y2="100%">
  <stop offset="0%" stop-color="#0C2A6C"/>
  <stop offset="100%" stop-color="#04102B"/>
</linearGradient>
<radialGradient id="glow" cx="50%" cy="45%" r="60%">
  <stop offset="0%" stop-color="#1B78FF" stop-opacity="0.28"/>
  <stop offset="100%" stop-color="#1B78FF" stop-opacity="0"/>
</radialGradient>
<filter id="softShadow" x="-30%" y="-30%" width="160%" height="160%">
  <feDropShadow dx="0" dy="12" stdDeviation="20" flood-color="#001038" flood-opacity="0.28"/>
</filter>

</defs>

<rect width="1600" height="1150" fill="#FFFFFF"/>
<path d="M571 0H970L1480 1490H1143L913 771C868 621 822 449 772 246C721 447 673 621 626 771L388 1490H49Z" fill="#071B4A" transform="translate(90.000 105.000) scale(0.024414 -0.024414)"/>
<path d="M440 1490H135V0H440Z" fill="#071B4A" transform="translate(127.329 105.000) scale(0.024414 -0.024414)"/>
<path d="M659 0C1112 0 1385 280 1385 746C1385 1210 1112 1490 664 1490H135V0ZM440 263V1227H646C931 1227 1081 1079 1081 746C1081 411 931 263 644 263Z" fill="#071B4A" transform="translate(141.367 105.000) scale(0.024414 -0.024414)"/>
<path d="M49 0H386L497 346H1026L1141 0H1480L958 1490H558ZM573 585 616 719C661 869 705 1046 755 1251C807 1048 854 872 902 719L947 585Z" fill="#071B4A" transform="translate(177.476 105.000) scale(0.024414 -0.024414)"/>
<path d="M135 0H1083V253H440V1490H135Z" fill="#071B4A" transform="translate(214.805 105.000) scale(0.024414 -0.024414)"/>
<path d="M601 0H905V560L1448 1490H1092L848 1026C813 959 784 897 755 818C725 896 696 958 658 1026L406 1490H49L601 560Z" fill="#071B4A" transform="translate(243.076 105.000) scale(0.024414 -0.024414)"/>
<path d="M681 -22C1043 -22 1256 153 1256 424C1256 674 1062 802 811 860L676 893C550 923 438 970 438 1081C438 1181 526 1253 682 1253C835 1253 930 1184 941 1065H1236C1231 1327 1015 1510 685 1510C361 1510 125 1330 125 1061C125 844 276 717 528 656L692 615C854 575 949 528 949 426C949 313 841 236 678 236C513 236 392 311 382 462H85C94 145 323 -22 681 -22Z" fill="#071B4A" transform="translate(279.624 105.000) scale(0.024414 -0.024414)"/>
<path d="M135 0H440V487H709C1052 487 1249 692 1249 987C1249 1280 1055 1490 716 1490H135ZM440 733V1238H659C846 1238 934 1137 934 987C934 837 846 733 660 733Z" fill="#071B4A" transform="translate(324.204 105.000) scale(0.024414 -0.024414)"/>
<path d="M49 0H386L497 346H1026L1141 0H1480L958 1490H558ZM573 585 616 719C661 869 705 1046 755 1251C807 1048 854 872 902 719L947 585Z" fill="#071B4A" transform="translate(356.602 105.000) scale(0.024414 -0.024414)"/>
<path d="M601 0H905V560L1448 1490H1092L848 1026C813 959 784 897 755 818C725 896 696 958 658 1026L406 1490H49L601 560Z" fill="#071B4A" transform="translate(393.931 105.000) scale(0.024414 -0.024414)"/>
<path d="M2048 733H0V493H2048Z" fill="#071B4A" transform="translate(442.319 105.000) scale(0.024414 -0.024414)"/>
<path d="M135 0H440V426L638 644L1061 0H1422L849 845L1406 1490H1033L668 1062C569 942 500 848 435 744L440 1083V1490H135Z" fill="#071B4A" transform="translate(504.160 105.000) scale(0.024414 -0.024414)"/>
<path d="M440 1490H135V0H440Z" fill="#071B4A" transform="translate(540.122 105.000) scale(0.024414 -0.024414)"/>
<path d="M75 1237H531V0H837V1237H1292V1490H75Z" fill="#071B4A" transform="translate(554.160 105.000) scale(0.024414 -0.024414)"/>
<path d="M571 0H970L1480 1490H1143L913 771C868 621 822 449 772 246C721 447 673 621 626 771L388 1490H49Z" fill="#071B4A" transform="translate(599.375 105.000) scale(0.024414 -0.024414)"/>
<path d="M440 1490H135V0H440Z" fill="#071B4A" transform="translate(636.704 105.000) scale(0.024414 -0.024414)"/>
<path d="M681 -22C1043 -22 1256 153 1256 424C1256 674 1062 802 811 860L676 893C550 923 438 970 438 1081C438 1181 526 1253 682 1253C835 1253 930 1184 941 1065H1236C1231 1327 1015 1510 685 1510C361 1510 125 1330 125 1061C125 844 276 717 528 656L692 615C854 575 949 528 949 426C949 313 841 236 678 236C513 236 392 311 382 462H85C94 145 323 -22 681 -22Z" fill="#071B4A" transform="translate(650.742 105.000) scale(0.024414 -0.024414)"/>
<path d="M750 -21C1118 -21 1365 197 1365 523V1490H1059V548C1059 374 937 249 750 249C563 249 440 374 440 548V1490H135V523C135 197 379 -21 750 -21Z" fill="#071B4A" transform="translate(683.481 105.000) scale(0.024414 -0.024414)"/>
<path d="M49 0H386L497 346H1026L1141 0H1480L958 1490H558ZM573 585 616 719C661 869 705 1046 755 1251C807 1048 854 872 902 719L947 585Z" fill="#071B4A" transform="translate(720.078 105.000) scale(0.024414 -0.024414)"/>
<path d="M135 0H1083V253H440V1490H135Z" fill="#071B4A" transform="translate(757.407 105.000) scale(0.024414 -0.024414)"/><path d="M52 0H254L398 416H1012L1161 0H1361L813 1490H593ZM456 582 561 884C593 976 639 1118 702 1338C765 1122 809 984 845 884L953 582Z" fill="#7383A7" transform="translate(90.000 155.000) scale(0.011719 -0.011719)"/>
<path d="M598 1118H368V1384H188V1118H20V964H188V276C188 93 302 -14 495 -14C541 -14 592 -7 629 6L592 158C562 152 523 146 500 146C405 146 368 190 368 290V964H598Z" fill="#7383A7" transform="translate(106.559 155.000) scale(0.011719 -0.011719)"/>
<path d="M158 0H338V1118H158ZM249 1301C318 1301 375 1354 375 1420C375 1486 318 1539 249 1539C181 1539 124 1486 124 1420C124 1354 181 1301 249 1301Z" fill="#7383A7" transform="translate(114.410 155.000) scale(0.011719 -0.011719)"/>
<path d="M481 0H670L1097 1118H900L662 455C627 358 601 260 576 167C550 260 524 358 489 455L251 1118H54Z" fill="#7383A7" transform="translate(120.223 155.000) scale(0.011719 -0.011719)"/>
<path d="M613 -24C918 -24 1124 207 1124 552C1124 902 918 1132 613 1132C309 1132 104 902 104 552C104 207 309 -24 613 -24ZM613 137C390 137 287 332 287 552C287 775 390 971 613 971C839 971 942 774 942 552C942 332 839 137 613 137Z" fill="#7383A7" transform="translate(133.711 155.000) scale(0.011719 -0.011719)"/>
<path d="M538 -24C800 -24 979 119 979 315C979 468 884 569 681 617L512 657C381 688 324 734 324 817C324 910 424 979 557 979C701 979 764 901 795 821L958 863C907 1020 786 1132 556 1132C318 1132 142 998 142 806C142 649 239 549 442 501L628 457C738 431 792 380 792 303C792 211 692 134 536 134C402 134 311 189 279 312L108 271C148 78 308 -24 538 -24Z" fill="#7383A7" transform="translate(148.102 155.000) scale(0.011719 -0.011719)"/>
<path d="M481 0H670L1097 1118H900L662 455C627 358 601 260 576 167C550 260 524 358 489 455L251 1118H54Z" fill="#7383A7" transform="translate(167.520 155.000) scale(0.011719 -0.011719)"/>
<path d="M628 -24C857 -24 1024 91 1076 260L902 308C860 194 761 136 629 136C431 136 295 264 286 498H1094V573C1094 986 844 1132 607 1132C302 1132 104 893 104 550C104 206 304 -24 628 -24ZM287 650C298 821 415 972 607 972C791 972 894 840 911 650Z" fill="#7383A7" transform="translate(181.008 155.000) scale(0.011719 -0.011719)"/>
<path d="M598 1118H368V1384H188V1118H20V964H188V276C188 93 302 -14 495 -14C541 -14 592 -7 629 6L592 158C562 152 523 146 500 146C405 146 368 190 368 290V964H598Z" fill="#7383A7" transform="translate(195.000 155.000) scale(0.011719 -0.011719)"/>
<path d="M613 -24C918 -24 1124 207 1124 552C1124 902 918 1132 613 1132C309 1132 104 902 104 552C104 207 309 -24 613 -24ZM613 137C390 137 287 332 287 552C287 775 390 971 613 971C839 971 942 774 942 552C942 332 839 137 613 137Z" fill="#7383A7" transform="translate(202.852 155.000) scale(0.011719 -0.011719)"/>
<path d="M158 0H338V700C338 851 456 960 617 960C665 960 714 952 725 950V1131C704 1132 660 1134 634 1134C501 1134 385 1059 344 946H332V1118H158Z" fill="#7383A7" transform="translate(217.242 155.000) scale(0.011719 -0.011719)"/>
<path d="M158 0H338V1118H158ZM249 1301C318 1301 375 1354 375 1420C375 1486 318 1539 249 1539C181 1539 124 1486 124 1420C124 1354 181 1301 249 1301Z" fill="#7383A7" transform="translate(226.277 155.000) scale(0.011719 -0.011719)"/>
<path d="M471 -26C660 -26 765 73 803 152H815V0H992V737C992 1086 723 1132 573 1132C400 1132 208 1070 122 867L295 810C330 888 417 974 578 974C733 974 812 894 812 755V749C812 666 724 672 525 647C318 621 90 574 90 318C90 98 259 -26 471 -26ZM502 133C368 133 271 193 271 309C271 436 386 478 517 495C586 504 782 524 812 559V404C812 267 701 133 502 133Z" fill="#7383A7" transform="translate(232.090 155.000) scale(0.011719 -0.011719)"/>
<path d="M158 0H338V1118H158ZM249 1301C318 1301 375 1354 375 1420C375 1486 318 1539 249 1539C181 1539 124 1486 124 1420C124 1354 181 1301 249 1301Z" fill="#7383A7" transform="translate(245.566 155.000) scale(0.011719 -0.011719)"/>
<path d="M538 -24C800 -24 979 119 979 315C979 468 884 569 681 617L512 657C381 688 324 734 324 817C324 910 424 979 557 979C701 979 764 901 795 821L958 863C907 1020 786 1132 556 1132C318 1132 142 998 142 806C142 649 239 549 442 501L628 457C738 431 792 380 792 303C792 211 692 134 536 134C402 134 311 189 279 312L108 271C148 78 308 -24 538 -24Z" fill="#7383A7" transform="translate(251.379 155.000) scale(0.011719 -0.011719)"/>
<path d="M613 -24C832 -24 1010 95 1070 294L898 343C865 222 763 137 613 137C390 137 287 332 287 552C287 775 390 971 613 971C760 971 860 889 893 774L1066 823C1005 1018 829 1132 613 1132C309 1132 104 902 104 552C104 207 309 -24 613 -24Z" fill="#7383A7" transform="translate(270.797 155.000) scale(0.011719 -0.011719)"/>
<path d="M613 -24C918 -24 1124 207 1124 552C1124 902 918 1132 613 1132C309 1132 104 902 104 552C104 207 309 -24 613 -24ZM613 137C390 137 287 332 287 552C287 775 390 971 613 971C839 971 942 774 942 552C942 332 839 137 613 137Z" fill="#7383A7" transform="translate(284.508 155.000) scale(0.011719 -0.011719)"/>
<path d="M338 670C338 861 459 970 620 970C776 970 872 867 872 695V0H1052V710C1052 993 900 1132 674 1132C524 1132 404 1069 332 911L331 1118H158V0H338Z" fill="#7383A7" transform="translate(298.898 155.000) scale(0.011719 -0.011719)"/>
<path d="M538 -24C800 -24 979 119 979 315C979 468 884 569 681 617L512 657C381 688 324 734 324 817C324 910 424 979 557 979C701 979 764 901 795 821L958 863C907 1020 786 1132 556 1132C318 1132 142 998 142 806C142 649 239 549 442 501L628 457C738 431 792 380 792 303C792 211 692 134 536 134C402 134 311 189 279 312L108 271C148 78 308 -24 538 -24Z" fill="#7383A7" transform="translate(313.078 155.000) scale(0.011719 -0.011719)"/>
<path d="M158 0H338V1118H158ZM249 1301C318 1301 375 1354 375 1420C375 1486 318 1539 249 1539C181 1539 124 1486 124 1420C124 1354 181 1301 249 1301Z" fill="#7383A7" transform="translate(325.746 155.000) scale(0.011719 -0.011719)"/>
<path d="M538 -24C800 -24 979 119 979 315C979 468 884 569 681 617L512 657C381 688 324 734 324 817C324 910 424 979 557 979C701 979 764 901 795 821L958 863C907 1020 786 1132 556 1132C318 1132 142 998 142 806C142 649 239 549 442 501L628 457C738 431 792 380 792 303C792 211 692 134 536 134C402 134 311 189 279 312L108 271C148 78 308 -24 538 -24Z" fill="#7383A7" transform="translate(331.559 155.000) scale(0.011719 -0.011719)"/>
<path d="M598 1118H368V1384H188V1118H20V964H188V276C188 93 302 -14 495 -14C541 -14 592 -7 629 6L592 158C562 152 523 146 500 146C405 146 368 190 368 290V964H598Z" fill="#7383A7" transform="translate(344.227 155.000) scale(0.011719 -0.011719)"/>
<path d="M628 -24C857 -24 1024 91 1076 260L902 308C860 194 761 136 629 136C431 136 295 264 286 498H1094V573C1094 986 844 1132 607 1132C302 1132 104 893 104 550C104 206 304 -24 628 -24ZM287 650C298 821 415 972 607 972C791 972 894 840 911 650Z" fill="#7383A7" transform="translate(352.078 155.000) scale(0.011719 -0.011719)"/>
<path d="M338 670C338 861 459 970 620 970C776 970 872 867 872 695V0H1052V710C1052 993 900 1132 674 1132C524 1132 404 1069 332 911L331 1118H158V0H338Z" fill="#7383A7" transform="translate(366.070 155.000) scale(0.011719 -0.011719)"/>
<path d="M598 1118H368V1384H188V1118H20V964H188V276C188 93 302 -14 495 -14C541 -14 592 -7 629 6L592 158C562 152 523 146 500 146C405 146 368 190 368 290V964H598Z" fill="#7383A7" transform="translate(380.250 155.000) scale(0.011719 -0.011719)"/>
<path d="M628 -24C857 -24 1024 91 1076 260L902 308C860 194 761 136 629 136C431 136 295 264 286 498H1094V573C1094 986 844 1132 607 1132C302 1132 104 893 104 550C104 206 304 -24 628 -24ZM287 650C298 821 415 972 607 972C791 972 894 840 911 650Z" fill="#7383A7" transform="translate(388.102 155.000) scale(0.011719 -0.011719)"/>
<path d="M538 -24C800 -24 979 119 979 315C979 468 884 569 681 617L512 657C381 688 324 734 324 817C324 910 424 979 557 979C701 979 764 901 795 821L958 863C907 1020 786 1132 556 1132C318 1132 142 998 142 806C142 649 239 549 442 501L628 457C738 431 792 380 792 303C792 211 692 134 536 134C402 134 311 189 279 312L108 271C148 78 308 -24 538 -24Z" fill="#7383A7" transform="translate(402.094 155.000) scale(0.011719 -0.011719)"/>
<path d="M158 -418H338V173H352C389 111 464 -24 677 -24C956 -24 1150 200 1150 556C1150 910 955 1132 676 1132C458 1132 389 998 352 939H332V1118H158ZM650 137C447 137 336 309 336 558C336 805 444 971 650 971C862 971 967 790 967 558C967 323 859 137 650 137Z" fill="#7383A7" transform="translate(421.512 155.000) scale(0.011719 -0.011719)"/>
<path d="M471 -26C660 -26 765 73 803 152H815V0H992V737C992 1086 723 1132 573 1132C400 1132 208 1070 122 867L295 810C330 888 417 974 578 974C733 974 812 894 812 755V749C812 666 724 672 525 647C318 621 90 574 90 318C90 98 259 -26 471 -26ZM502 133C368 133 271 193 271 309C271 436 386 478 517 495C586 504 782 524 812 559V404C812 267 701 133 502 133Z" fill="#7383A7" transform="translate(436.207 155.000) scale(0.011719 -0.011719)"/>
<path d="M158 0H338V700C338 851 456 960 617 960C665 960 714 952 725 950V1131C704 1132 660 1134 634 1134C501 1134 385 1059 344 946H332V1118H158Z" fill="#7383A7" transform="translate(449.684 155.000) scale(0.011719 -0.011719)"/>
<path d="M471 -26C660 -26 765 73 803 152H815V0H992V737C992 1086 723 1132 573 1132C400 1132 208 1070 122 867L295 810C330 888 417 974 578 974C733 974 812 894 812 755V749C812 666 724 672 525 647C318 621 90 574 90 318C90 98 259 -26 471 -26ZM502 133C368 133 271 193 271 309C271 436 386 478 517 495C586 504 782 524 812 559V404C812 267 701 133 502 133Z" fill="#7383A7" transform="translate(458.719 155.000) scale(0.011719 -0.011719)"/>
<path d="M158 -418H338V173H352C389 111 464 -24 677 -24C956 -24 1150 200 1150 556C1150 910 955 1132 676 1132C458 1132 389 998 352 939H332V1118H158ZM650 137C447 137 336 309 336 558C336 805 444 971 650 971C862 971 967 790 967 558C967 323 859 137 650 137Z" fill="#7383A7" transform="translate(478.945 155.000) scale(0.011719 -0.011719)"/>
<path d="M158 0H338V700C338 851 456 960 617 960C665 960 714 952 725 950V1131C704 1132 660 1134 634 1134C501 1134 385 1059 344 946H332V1118H158Z" fill="#7383A7" transform="translate(493.641 155.000) scale(0.011719 -0.011719)"/>
<path d="M613 -24C918 -24 1124 207 1124 552C1124 902 918 1132 613 1132C309 1132 104 902 104 552C104 207 309 -24 613 -24ZM613 137C390 137 287 332 287 552C287 775 390 971 613 971C839 971 942 774 942 552C942 332 839 137 613 137Z" fill="#7383A7" transform="translate(502.676 155.000) scale(0.011719 -0.011719)"/>
<path d="M577 -24C790 -24 865 111 902 173H922V0H1096V1490H916V939H902C865 998 796 1132 578 1132C299 1132 104 910 104 556C104 200 298 -24 577 -24ZM604 137C395 137 287 323 287 558C287 790 392 971 604 971C810 971 918 805 918 558C918 309 807 137 604 137Z" fill="#7383A7" transform="translate(517.066 155.000) scale(0.011719 -0.011719)"/>
<path d="M537 -14C684 -14 806 46 879 209V0H1053V1118H872V448C872 257 751 148 591 148C435 148 338 251 338 423V1118H158V408C158 125 311 -14 537 -14Z" fill="#7383A7" transform="translate(531.762 155.000) scale(0.011719 -0.011719)"/>
<path d="M502 -418H621C781 -418 852 -366 852 -248C852 -140 793 -91 663 -86V-22C859 -5 1015 110 1070 294L898 343C865 222 763 137 613 137C390 137 287 332 287 552C287 775 390 971 613 971C760 971 860 889 893 774L1066 823C1005 1018 829 1132 613 1132C309 1132 104 902 104 552C104 228 285 4 559 -21L538 -182H620C693 -182 718 -198 718 -247C718 -296 693 -313 620 -313H502Z" fill="#7383A7" transform="translate(545.953 155.000) scale(0.011719 -0.011719)"/>
<path d="M471 -26C660 -26 765 73 803 152H815V0H992V737C992 1086 723 1132 573 1132C400 1132 208 1070 122 867L295 810C330 888 417 974 578 974C733 974 812 894 812 755V749C812 666 724 672 525 647C318 621 90 574 90 318C90 98 259 -26 471 -26ZM502 133C368 133 271 193 271 309C271 436 386 478 517 495C586 504 782 524 812 559V404C812 267 701 133 502 133ZM689 1313C787 1313 845 1395 849 1521H726C719 1463 703 1440 670 1440C603 1440 533 1525 429 1525C322 1525 271 1437 267 1317H393C395 1356 411 1396 446 1396C497 1396 590 1313 689 1313Z" fill="#7383A7" transform="translate(559.664 155.000) scale(0.011719 -0.011719)"/>
<path d="M613 -24C918 -24 1124 207 1124 552C1124 902 918 1132 613 1132C309 1132 104 902 104 552C104 207 309 -24 613 -24ZM613 137C390 137 287 332 287 552C287 775 390 971 613 971C839 971 942 774 942 552C942 332 839 137 613 137Z" fill="#7383A7" transform="translate(573.141 155.000) scale(0.011719 -0.011719)"/><path d="M150 0H1075V225H417V1490H150Z" fill="#071B4A" transform="translate(90.000 250.000) scale(0.013672 -0.013672)"/>
<path d="M623 -23C949 -23 1158 209 1158 553C1158 901 949 1132 623 1132C297 1132 89 901 89 553C89 209 297 -23 623 -23ZM623 188C442 188 354 350 354 554C354 760 442 921 623 921C805 921 894 760 894 554C894 350 805 188 623 188Z" fill="#071B4A" transform="translate(105.832 250.000) scale(0.013672 -0.013672)"/>
<path d="M620 -442C921 -442 1143 -302 1143 -3V1118H888V933H874C834 1012 749 1132 551 1132C293 1132 89 929 89 562C89 198 292 17 549 17C742 17 824 119 864 200H886V-11C886 -171 780 -244 619 -244C456 -244 387 -167 352 -104L132 -183C188 -331 351 -442 620 -442ZM622 222C448 222 355 358 355 564C355 767 446 918 622 918C794 918 887 776 887 564C887 350 792 222 622 222Z" fill="#071B4A" transform="translate(122.881 250.000) scale(0.013672 -0.013672)"/>
<path d="M623 -23C949 -23 1158 209 1158 553C1158 901 949 1132 623 1132C297 1132 89 901 89 553C89 209 297 -23 623 -23ZM623 188C442 188 354 350 354 554C354 760 442 921 623 921C805 921 894 760 894 554C894 350 805 188 623 188Z" fill="#071B4A" transform="translate(140.395 250.000) scale(0.013672 -0.013672)"/>
<path d="M138 -418H398V177H409C449 96 536 -20 728 -20C993 -20 1190 190 1190 557C1190 929 987 1132 729 1132C530 1132 448 1012 409 933H392V1118H138ZM658 194C488 194 393 340 393 558C393 776 486 918 658 918C834 918 923 766 923 558C923 348 832 194 658 194Z" fill="#071B4A" transform="translate(164.498 250.000) scale(0.013672 -0.013672)"/>
<path d="M138 0H398V658C398 800 505 900 650 900C696 900 751 893 773 887V1126C748 1130 707 1133 678 1133C550 1133 442 1060 402 931H390V1118H138Z" fill="#071B4A" transform="translate(181.971 250.000) scale(0.013672 -0.013672)"/>
<path d="M138 0H398V1118H138ZM268 1276C351 1276 420 1340 420 1419C420 1498 351 1561 268 1561C185 1561 117 1498 117 1419C117 1340 185 1276 268 1276Z" fill="#071B4A" transform="translate(193.086 250.000) scale(0.013672 -0.013672)"/>
<path d="M398 655C398 817 498 911 637 911C773 911 855 821 855 671V0H1115V711C1115 980 963 1132 733 1132C569 1132 453 1052 387 895L384 1118H138V0H398Z" fill="#071B4A" transform="translate(200.414 250.000) scale(0.013672 -0.013672)"/>
<path d="M623 -23C874 -23 1060 113 1108 336L865 387C838 266 753 188 625 188C444 188 354 347 354 554C354 763 444 921 625 921C751 921 834 846 862 730L1105 781C1057 999 872 1132 623 1132C297 1132 89 901 89 553C89 209 297 -23 623 -23Z" fill="#071B4A" transform="translate(217.545 250.000) scale(0.013672 -0.013672)"/>
<path d="M138 0H398V1118H138ZM268 1276C351 1276 420 1340 420 1419C420 1498 351 1561 268 1561C185 1561 117 1498 117 1419C117 1340 185 1276 268 1276Z" fill="#071B4A" transform="translate(233.855 250.000) scale(0.013672 -0.013672)"/>
<path d="M138 -418H398V177H409C449 96 536 -20 728 -20C993 -20 1190 190 1190 557C1190 929 987 1132 729 1132C530 1132 448 1012 409 933H392V1118H138ZM658 194C488 194 393 340 393 558C393 776 486 918 658 918C834 918 923 766 923 558C923 348 832 194 658 194Z" fill="#071B4A" transform="translate(241.184 250.000) scale(0.013672 -0.013672)"/>
<path d="M450 -23C624 -23 730 58 779 154H789V0H1038V747C1038 1045 792 1132 582 1132C358 1132 174 1037 108 840L349 791C376 865 453 932 583 932C710 932 778 868 778 759V754C778 677 696 674 502 653C286 630 76 566 76 314C76 94 237 -23 450 -23ZM517 170C407 170 328 220 328 317C328 419 416 462 533 478C600 487 745 505 780 533V401C780 277 677 170 517 170Z" fill="#071B4A" transform="translate(258.656 250.000) scale(0.013672 -0.013672)"/>
<path d="M398 1490H138V0H398Z" fill="#071B4A" transform="translate(274.734 250.000) scale(0.013672 -0.013672)"/>
<rect x="70" y="275" width="1460" height="175" rx="28" fill="#F5F8FF"/>
<g transform="translate(100 250) scale(0.3)" fill="none" stroke="url(#brandGradient)" stroke-width="32" stroke-linecap="round" stroke-linejoin="round">
<path d="M40 256 H118 L178 142 L250 370 L310 256 H352"/>
<path d="M322 196 H392 C431 196 458 222 458 256 C458 290 431 316 392 316 H350"/>
<path d="M350 256 H407"/>
</g><path d="M571 0H970L1480 1490H1143L913 771C868 621 822 449 772 246C721 447 673 621 626 771L388 1490H49Z" fill="#071B4A" transform="translate(400.000 390.000) scale(0.042969 -0.042969)"/>
<path d="M128 0H428V1118H128ZM278 1264C368 1264 443 1332 443 1418C443 1503 368 1572 278 1572C187 1572 113 1503 113 1418C113 1332 187 1264 278 1264Z" fill="#071B4A" transform="translate(465.699 390.000) scale(0.042969 -0.042969)"/>
<path d="M537 -19C719 -19 812 89 853 179H868V0H1163V1490H863V930H853C813 1019 725 1132 535 1132C287 1132 81 939 81 557C81 185 279 -19 537 -19ZM629 222C473 222 389 361 389 558C389 754 471 892 629 892C783 892 869 761 869 558C869 356 782 222 629 222Z" fill="#071B4A" transform="translate(489.547 390.000) scale(0.042969 -0.042969)"/>
<path d="M440 -22C605 -22 713 51 767 155H777V0H1061V753C1061 1024 827 1132 587 1132C337 1132 157 1021 100 827L375 781C399 853 470 910 586 910C698 910 761 856 761 761V756C761 683 682 675 490 656C270 635 68 563 68 313C68 92 227 -22 440 -22ZM525 189C426 189 356 234 356 321C356 411 430 454 541 470C607 479 726 495 763 521V400C763 282 665 189 525 189Z" fill="#071B4A" transform="translate(545.020 390.000) scale(0.042969 -0.042969)"/>
<path d="M428 1490H128V0H428Z" fill="#071B4A" transform="translate(596.109 390.000) scale(0.042969 -0.042969)"/>
<path d="M120 -396C163 -413 237 -426 316 -426C540 -426 658 -313 726 -132L1201 1118H886L690 538C658 442 632 346 609 246C588 345 568 441 538 538L350 1118H31L451 -3L443 -63C430 -175 347 -212 226 -179L189 -170Z" fill="#071B4A" transform="translate(619.957 390.000) scale(0.042969 -0.042969)"/>
<path d="M572 -22C865 -22 1072 125 1072 345C1072 504 968 603 752 647L551 687C445 709 407 748 407 804C407 871 483 917 581 917C690 917 753 863 777 787L1043 834C1001 1016 842 1132 577 1132C294 1132 107 1000 107 785C107 618 213 512 429 468L622 428C720 408 766 372 766 313C766 246 695 198 581 198C458 198 386 249 357 354L78 306C117 98 302 -22 572 -22Z" fill="#071B4A" transform="translate(672.938 390.000) scale(0.042969 -0.042969)"/><path d="M135 0H440V487H709C1052 487 1249 692 1249 987C1249 1280 1055 1490 716 1490H135ZM440 733V1238H659C846 1238 934 1137 934 987C934 837 846 733 660 733Z" fill="url(#brandGradient)" transform="translate(736.223 390.000) scale(0.042969 -0.042969)"/>
<path d="M440 -22C605 -22 713 51 767 155H777V0H1061V753C1061 1024 827 1132 587 1132C337 1132 157 1021 100 827L375 781C399 853 470 910 586 910C698 910 761 856 761 761V756C761 683 682 675 490 656C270 635 68 563 68 313C68 92 227 -22 440 -22ZM525 189C426 189 356 234 356 321C356 411 430 454 541 470C607 479 726 495 763 521V400C763 282 665 189 525 189Z" fill="url(#brandGradient)" transform="translate(793.242 390.000) scale(0.042969 -0.042969)"/>
<path d="M120 -396C163 -413 237 -426 316 -426C540 -426 658 -313 726 -132L1201 1118H886L690 538C658 442 632 346 609 246C588 345 568 441 538 538L350 1118H31L451 -3L443 -63C430 -175 347 -212 226 -179L189 -170Z" fill="url(#brandGradient)" transform="translate(844.332 390.000) scale(0.042969 -0.042969)"/>
<path d="M417 1490H150V0H417ZM185 1633H374L577 1939H324Z" fill="#071B4A" transform="translate(90.000 525.000) scale(0.013672 -0.013672)"/>
<path d="M623 -23C874 -23 1060 113 1108 336L865 387C838 266 753 188 625 188C444 188 354 347 354 554C354 763 444 921 625 921C751 921 834 846 862 730L1105 781C1057 999 872 1132 623 1132C297 1132 89 901 89 553C89 209 297 -23 623 -23Z" fill="#071B4A" transform="translate(97.752 525.000) scale(0.013672 -0.013672)"/>
<path d="M623 -23C949 -23 1158 209 1158 553C1158 901 949 1132 623 1132C297 1132 89 901 89 553C89 209 297 -23 623 -23ZM623 188C442 188 354 350 354 554C354 760 442 921 623 921C805 921 894 760 894 554C894 350 805 188 623 188Z" fill="#071B4A" transform="translate(114.062 525.000) scale(0.013672 -0.013672)"/>
<path d="M398 655C398 817 498 911 637 911C773 911 855 821 855 671V0H1115V711C1115 980 963 1132 733 1132C569 1132 453 1052 387 895L384 1118H138V0H398Z" fill="#071B4A" transform="translate(131.111 525.000) scale(0.013672 -0.013672)"/>
<path d="M632 -23C881 -23 1055 96 1109 277L870 326C835 231 749 181 635 181C468 181 355 287 348 486H1126V568C1126 960 888 1132 615 1132C295 1132 89 896 89 552C89 202 295 -23 632 -23ZM349 663C361 812 457 928 616 928C771 928 858 823 873 663Z" fill="#071B4A" transform="translate(148.242 525.000) scale(0.013672 -0.013672)"/>
<path d="M561 -23C843 -23 1041 123 1041 335C1041 492 940 592 728 637L538 677C424 702 379 743 379 808C379 884 463 938 573 938C693 938 757 876 783 798L1015 844C970 1017 823 1132 570 1132C302 1132 119 999 119 792C119 628 222 525 433 479L624 438C726 416 775 375 775 310C775 234 694 176 566 176C439 176 361 229 331 340L88 294C127 91 304 -23 561 -23Z" fill="#071B4A" transform="translate(164.799 525.000) scale(0.013672 -0.013672)"/>
<path d="M550 -20C743 -20 829 96 870 177H886V0H1141V1490H881V933H870C830 1012 748 1132 549 1132C291 1132 89 929 89 557C89 190 285 -20 550 -20ZM621 194C447 194 355 348 355 558C355 766 445 918 621 918C792 918 886 776 886 558C886 340 790 194 621 194Z" fill="#071B4A" transform="translate(187.234 525.000) scale(0.013672 -0.013672)"/>
<path d="M623 -23C949 -23 1158 209 1158 553C1158 901 949 1132 623 1132C297 1132 89 901 89 553C89 209 297 -23 623 -23ZM623 188C442 188 354 350 354 554C354 760 442 921 623 921C805 921 894 760 894 554C894 350 805 188 623 188Z" fill="#071B4A" transform="translate(204.707 525.000) scale(0.013672 -0.013672)"/>
<path d="M450 -23C624 -23 730 58 779 154H789V0H1038V747C1038 1045 792 1132 582 1132C358 1132 174 1037 108 840L349 791C376 865 453 932 583 932C710 932 778 868 778 759V754C778 677 696 674 502 653C286 630 76 566 76 314C76 94 237 -23 450 -23ZM517 170C407 170 328 220 328 317C328 419 416 462 533 478C600 487 745 505 780 533V401C780 277 677 170 517 170Z" fill="#071B4A" transform="translate(228.811 525.000) scale(0.013672 -0.013672)"/>
<path d="M138 -418H398V177H409C449 96 536 -20 728 -20C993 -20 1190 190 1190 557C1190 929 987 1132 729 1132C530 1132 448 1012 409 933H392V1118H138ZM658 194C488 194 393 340 393 558C393 776 486 918 658 918C834 918 923 766 923 558C923 348 832 194 658 194Z" fill="#071B4A" transform="translate(244.889 525.000) scale(0.013672 -0.013672)"/>
<path d="M138 -418H398V177H409C449 96 536 -20 728 -20C993 -20 1190 190 1190 557C1190 929 987 1132 729 1132C530 1132 448 1012 409 933H392V1118H138ZM658 194C488 194 393 340 393 558C393 776 486 918 658 918C834 918 923 766 923 558C923 348 832 194 658 194Z" fill="#071B4A" transform="translate(262.361 525.000) scale(0.013672 -0.013672)"/>
<rect x="70" y="555" width="620" height="470" rx="30" fill="#F5F8FF"/>
<g transform="translate(120 610) scale(.55)"><rect x="16" y="16" width="480" height="480" rx="112" fill="url(#bgGradient)"/><rect x="16" y="16" width="480" height="480" rx="112" fill="url(#glow)"/><g transform="translate(30 20) scale(0.94)" fill="none" stroke="url(#brandGradient)" stroke-width="31" stroke-linecap="round" stroke-linejoin="round">
<path d="M40 256 H118 L178 142 L250 370 L310 256 H352"/>
<path d="M322 196 H392 C431 196 458 222 458 256 C458 290 431 316 392 316 H350"/>
<path d="M350 256 H407"/>
</g></g>
<g transform="translate(390 610) scale(.55)"><rect x="16" y="16" width="480" height="480" rx="112" fill="url(#brandGradient)"/><g transform="translate(30 20) scale(0.94)" fill="none" stroke="#FFFFFF" stroke-width="31" stroke-linecap="round" stroke-linejoin="round">
<path d="M40 256 H118 L178 142 L250 370 L310 256 H352"/>
<path d="M322 196 H392 C431 196 458 222 458 256 C458 290 431 316 392 316 H350"/>
<path d="M350 256 H407"/>
</g></g>
<path d="M150 0H417V504H703C1047 504 1232 711 1232 997C1232 1281 1050 1490 707 1490H150ZM417 724V1266H666C870 1266 959 1156 959 997C959 838 870 724 668 724Z" fill="#071B4A" transform="translate(800.000 525.000) scale(0.013672 -0.013672)"/>
<path d="M450 -23C624 -23 730 58 779 154H789V0H1038V747C1038 1045 792 1132 582 1132C358 1132 174 1037 108 840L349 791C376 865 453 932 583 932C710 932 778 868 778 759V754C778 677 696 674 502 653C286 630 76 566 76 314C76 94 237 -23 450 -23ZM517 170C407 170 328 220 328 317C328 419 416 462 533 478C600 487 745 505 780 533V401C780 277 677 170 517 170Z" fill="#071B4A" transform="translate(818.061 525.000) scale(0.013672 -0.013672)"/>
<path d="M398 1490H138V0H398Z" fill="#071B4A" transform="translate(834.139 525.000) scale(0.013672 -0.013672)"/>
<path d="M632 -23C881 -23 1055 96 1109 277L870 326C835 231 749 181 635 181C468 181 355 287 348 486H1126V568C1126 960 888 1132 615 1132C295 1132 89 896 89 552C89 202 295 -23 632 -23ZM349 663C361 812 457 928 616 928C771 928 858 823 873 663Z" fill="#071B4A" transform="translate(841.467 525.000) scale(0.013672 -0.013672)"/>
<path d="M655 1118H439V1384H179V1118H20V914H179V293C179 95 298 -15 512 -15C567 -15 629 -8 686 9L645 210C620 204 574 197 550 197C471 197 439 234 439 315V914H655Z" fill="#071B4A" transform="translate(858.023 525.000) scale(0.013672 -0.013672)"/>
<path d="M450 -23C624 -23 730 58 779 154H789V0H1038V747C1038 1045 792 1132 582 1132C358 1132 174 1037 108 840L349 791C376 865 453 932 583 932C710 932 778 868 778 759V754C778 677 696 674 502 653C286 630 76 566 76 314C76 94 237 -23 450 -23ZM517 170C407 170 328 220 328 317C328 419 416 462 533 478C600 487 745 505 780 533V401C780 277 677 170 517 170Z" fill="#071B4A" transform="translate(867.908 525.000) scale(0.013672 -0.013672)"/>
<rect x="780" y="555" width="750" height="470" rx="30" fill="#F5F8FF"/>
<rect x="850" y="640" width="120" height="120" rx="20" fill="#071B4A"/>
<rect x="1000" y="640" width="120" height="120" rx="20" fill="#2563FF"/>
<rect x="1150" y="640" width="120" height="120" rx="20" fill="#19D5D8"/>
<rect x="1300" y="640" width="120" height="120" rx="20" fill="#00C896"/>
<rect x="850" y="810" width="570" height="90" rx="20" fill="url(#brandGradient)"/>

</svg>