<svg xmlns="http://www.w3.org/2000/svg" width="1200" height="630" viewBox="0 0 1200 630" fill="none">
<defs>
<linearGradient id="brandGradient" x1="0%" y1="0%" x2="100%" y2="100%">
  <stop offset="0%" stop-color="#19D5D8"/>
  <stop offset="52%" stop-color="#15AFFF"/>
  <stop offset="100%" stop-color="#2563FF"/>
</linearGradient>
<linearGradient id="bgGradient" x1="0%" y1="0%" x2="100%" y2="100%">
  <stop offset="0%" stop-color="#0C2A6C"/>
  <stop offset="100%" stop-color="#04102B"/>
</linearGradient>
<radialGradient id="glow" cx="50%" cy="45%" r="60%">
  <stop offset="0%" stop-color="#1B78FF" stop-opacity="0.28"/>
  <stop offset="100%" stop-color="#1B78FF" stop-opacity="0"/>
</radialGradient>
<filter id="softShadow" x="-30%" y="-30%" width="160%" height="160%">
  <feDropShadow dx="0" dy="12" stdDeviation="20" flood-color="#001038" flood-opacity="0.28"/>
</filter>

</defs>

<rect width="1200" height="630" fill="url(#bgGradient)"/>
<rect width="1200" height="630" fill="url(#glow)"/>
<path d="M650 530 C850 400 920 650 1240 420" stroke="#187BFF" stroke-opacity=".28" stroke-width="3" fill="none"/>
<path d="M640 565 C840 435 980 675 1240 470" stroke="#19D5D8" stroke-opacity=".18" stroke-width="2" fill="none"/>
<g transform="translate(70 22) scale(0.2)" fill="none" stroke="url(#brandGradient)" stroke-width="34" stroke-linecap="round" stroke-linejoin="round">
<path d="M40 256 H118 L178 142 L250 370 L310 256 H352"/>
<path d="M322 196 H392 C431 196 458 222 458 256 C458 290 431 316 392 316 H350"/>
<path d="M350 256 H407"/>
</g><path d="M571 0H970L1480 1490H1143L913 771C868 621 822 449 772 246C721 447 673 621 626 771L388 1490H49Z" fill="#FFFFFF" transform="translate(170.000 110.000) scale(0.023438 -0.023438)"/>
<path d="M128 0H428V1118H128ZM278 1264C368 1264 443 1332 443 1418C443 1503 368 1572 278 1572C187 1572 113 1503 113 1418C113 1332 187 1264 278 1264Z" fill="#FFFFFF" transform="translate(205.836 110.000) scale(0.023438 -0.023438)"/>
<path d="M537 -19C719 -19 812 89 853 179H868V0H1163V1490H863V930H853C813 1019 725 1132 535 1132C287 1132 81 939 81 557C81 185 279 -19 537 -19ZM629 222C473 222 389 361 389 558C389 754 471 892 629 892C783 892 869 761 869 558C869 356 782 222 629 222Z" fill="#FFFFFF" transform="translate(218.844 110.000) scale(0.023438 -0.023438)"/>
<path d="M440 -22C605 -22 713 51 767 155H777V0H1061V753C1061 1024 827 1132 587 1132C337 1132 157 1021 100 827L375 781C399 853 470 910 586 910C698 910 761 856 761 761V756C761 683 682 675 490 656C270 635 68 563 68 313C68 92 227 -22 440 -22ZM525 189C426 189 356 234 356 321C356 411 430 454 541 470C607 479 726 495 763 521V400C763 282 665 189 525 189Z" fill="#FFFFFF" transform="translate(249.102 110.000) scale(0.023438 -0.023438)"/>
<path d="M428 1490H128V0H428Z" fill="#FFFFFF" transform="translate(276.969 110.000) scale(0.023438 -0.023438)"/>
<path d="M120 -396C163 -413 237 -426 316 -426C540 -426 658 -313 726 -132L1201 1118H886L690 538C658 442 632 346 609 246C588 345 568 441 538 538L350 1118H31L451 -3L443 -63C430 -175 347 -212 226 -179L189 -170Z" fill="#FFFFFF" transform="translate(289.977 110.000) scale(0.023438 -0.023438)"/>
<path d="M572 -22C865 -22 1072 125 1072 345C1072 504 968 603 752 647L551 687C445 709 407 748 407 804C407 871 483 917 581 917C690 917 753 863 777 787L1043 834C1001 1016 842 1132 577 1132C294 1132 107 1000 107 785C107 618 213 512 429 468L622 428C720 408 766 372 766 313C766 246 695 198 581 198C458 198 386 249 357 354L78 306C117 98 302 -22 572 -22Z" fill="#FFFFFF" transform="translate(318.875 110.000) scale(0.023438 -0.023438)"/><path d="M135 0H440V487H709C1052 487 1249 692 1249 987C1249 1280 1055 1490 716 1490H135ZM440 733V1238H659C846 1238 934 1137 934 987C934 837 846 733 660 733Z" fill="url(#brandGradient)" transform="translate(353.758 110.000) scale(0.023438 -0.023438)"/>
<path d="M440 -22C605 -22 713 51 767 155H777V0H1061V753C1061 1024 827 1132 587 1132C337 1132 157 1021 100 827L375 781C399 853 470 910 586 910C698 910 761 856 761 761V756C761 683 682 675 490 656C270 635 68 563 68 313C68 92 227 -22 440 -22ZM525 189C426 189 356 234 356 321C356 411 430 454 541 470C607 479 726 495 763 521V400C763 282 665 189 525 189Z" fill="url(#brandGradient)" transform="translate(384.859 110.000) scale(0.023438 -0.023438)"/>
<path d="M120 -396C163 -413 237 -426 316 -426C540 -426 658 -313 726 -132L1201 1118H886L690 538C658 442 632 346 609 246C588 345 568 441 538 538L350 1118H31L451 -3L443 -63C430 -175 347 -212 226 -179L189 -170Z" fill="url(#brandGradient)" transform="translate(412.727 110.000) scale(0.023438 -0.023438)"/><path d="M135 0H440V487H709C1052 487 1249 692 1249 987C1249 1280 1055 1490 716 1490H135ZM440 733V1238H659C846 1238 934 1137 934 987C934 837 846 733 660 733Z" fill="#FFFFFF" transform="translate(95.000 250.000) scale(0.038086 -0.038086)"/>
<path d="M440 -22C605 -22 713 51 767 155H777V0H1061V753C1061 1024 827 1132 587 1132C337 1132 157 1021 100 827L375 781C399 853 470 910 586 910C698 910 761 856 761 761V756C761 683 682 675 490 656C270 635 68 563 68 313C68 92 227 -22 440 -22ZM525 189C426 189 356 234 356 321C356 411 430 454 541 470C607 479 726 495 763 521V400C763 282 665 189 525 189Z" fill="#FFFFFF" transform="translate(145.540 250.000) scale(0.038086 -0.038086)"/>
<path d="M625 -442C940 -442 1166 -294 1166 9V1118H871V930H858C817 1019 725 1132 537 1132C289 1132 81 939 81 561C81 191 284 16 536 16C717 16 805 108 846 198H869V-8C869 -155 776 -224 623 -224C477 -224 408 -159 380 -96L122 -168C171 -328 345 -442 625 -442ZM630 244C474 244 389 368 389 563C389 755 472 892 630 892C784 892 870 761 870 563C870 363 783 244 630 244Z" fill="#FFFFFF" transform="translate(190.824 250.000) scale(0.038086 -0.038086)"/>
<path d="M440 -22C605 -22 713 51 767 155H777V0H1061V753C1061 1024 827 1132 587 1132C337 1132 157 1021 100 827L375 781C399 853 470 910 586 910C698 910 761 856 761 761V756C761 683 682 675 490 656C270 635 68 563 68 313C68 92 227 -22 440 -22ZM525 189C426 189 356 234 356 321C356 411 430 454 541 470C607 479 726 495 763 521V400C763 282 665 189 525 189Z" fill="#FFFFFF" transform="translate(240.107 250.000) scale(0.038086 -0.038086)"/>
<path d="M128 0H428V676C428 810 509 884 615 884C717 884 789 814 789 705V0H1079V688C1079 805 1149 884 1263 884C1364 884 1441 823 1441 697V0H1741V754C1741 997 1589 1135 1384 1135C1230 1135 1088 1056 1025 884C973 1054 880 1135 737 1135C603 1135 478 1064 418 901L406 1118H128Z" fill="#FFFFFF" transform="translate(285.392 250.000) scale(0.038086 -0.038086)"/>
<path d="M633 -22C893 -22 1071 99 1126 285L854 336C822 250 743 204 638 204C487 204 385 298 378 481H1143V565C1143 947 910 1132 618 1132C291 1132 81 898 81 553C81 200 291 -22 633 -22ZM380 669C392 807 478 906 621 906C760 906 839 815 854 669Z" fill="#FFFFFF" transform="translate(356.574 250.000) scale(0.038086 -0.038086)"/>
<path d="M428 647C428 795 517 881 645 881C771 881 847 798 847 659V0H1147V711C1147 973 995 1132 763 1132C591 1132 478 1043 415 887L411 1118H128V0H428Z" fill="#FFFFFF" transform="translate(403.039 250.000) scale(0.038086 -0.038086)"/>
<path d="M683 1118H474V1384H174V1118H20V889H174V301C174 96 296 -16 520 -16C580 -16 647 -9 714 11L671 236C649 230 599 223 576 223C503 223 474 256 474 327V889H683Z" fill="#FFFFFF" transform="translate(451.599 250.000) scale(0.038086 -0.038086)"/>
<path d="M628 -22C964 -22 1175 210 1175 554C1175 900 964 1132 628 1132C291 1132 81 900 81 554C81 210 291 -22 628 -22ZM628 214C468 214 387 360 387 555C387 753 468 896 628 896C788 896 870 752 870 555C870 360 788 214 628 214Z" fill="#FFFFFF" transform="translate(480.163 250.000) scale(0.038086 -0.038086)"/>
<path d="M572 -22C865 -22 1072 125 1072 345C1072 504 968 603 752 647L551 687C445 709 407 748 407 804C407 871 483 917 581 917C690 917 753 863 777 787L1043 834C1001 1016 842 1132 577 1132C294 1132 107 1000 107 785C107 618 213 512 429 468L622 428C720 408 766 372 766 313C766 246 695 198 581 198C458 198 386 249 357 354L78 306C117 98 302 -22 572 -22Z" fill="#FFFFFF" transform="translate(527.999 250.000) scale(0.038086 -0.038086)"/>
<path d="M572 -22C865 -22 1072 125 1072 345C1072 504 968 603 752 647L551 687C445 709 407 748 407 804C407 871 483 917 581 917C690 917 753 863 777 787L1043 834C1001 1016 842 1132 577 1132C294 1132 107 1000 107 785C107 618 213 512 429 468L622 428C720 408 766 372 766 313C766 246 695 198 581 198C458 198 386 249 357 354L78 306C117 98 302 -22 572 -22Z" fill="#FFFFFF" transform="translate(590.155 250.000) scale(0.038086 -0.038086)"/>
<path d="M128 0H428V1118H128ZM278 1264C368 1264 443 1332 443 1418C443 1503 368 1572 278 1572C187 1572 113 1503 113 1418C113 1332 187 1264 278 1264Z" fill="#FFFFFF" transform="translate(633.840 250.000) scale(0.038086 -0.038086)"/>
<path d="M128 0H428V676C428 810 509 884 615 884C717 884 789 814 789 705V0H1079V688C1079 805 1149 884 1263 884C1364 884 1441 823 1441 697V0H1741V754C1741 997 1589 1135 1384 1135C1230 1135 1088 1056 1025 884C973 1054 880 1135 737 1135C603 1135 478 1064 418 901L406 1118H128Z" fill="#FFFFFF" transform="translate(654.978 250.000) scale(0.038086 -0.038086)"/>
<path d="M128 -418H428V179H437C479 89 571 -19 754 -19C1012 -19 1209 185 1209 557C1209 939 1004 1132 756 1132C566 1132 478 1019 437 930H423V1118H128ZM662 222C509 222 421 356 421 558C421 761 508 892 662 892C819 892 902 754 902 558C902 361 818 222 662 222Z" fill="#FFFFFF" transform="translate(726.160 250.000) scale(0.038086 -0.038086)"/>
<path d="M428 1490H128V0H428Z" fill="#FFFFFF" transform="translate(775.329 250.000) scale(0.038086 -0.038086)"/>
<path d="M633 -22C893 -22 1071 99 1126 285L854 336C822 250 743 204 638 204C487 204 385 298 378 481H1143V565C1143 947 910 1132 618 1132C291 1132 81 898 81 553C81 200 291 -22 633 -22ZM380 669C392 807 478 906 621 906C760 906 839 815 854 669Z" fill="#FFFFFF" transform="translate(796.467 250.000) scale(0.038086 -0.038086)"/>
<path d="M572 -22C865 -22 1072 125 1072 345C1072 504 968 603 752 647L551 687C445 709 407 748 407 804C407 871 483 917 581 917C690 917 753 863 777 787L1043 834C1001 1016 842 1132 577 1132C294 1132 107 1000 107 785C107 618 213 512 429 468L622 428C720 408 766 372 766 313C766 246 695 198 581 198C458 198 386 249 357 354L78 306C117 98 302 -22 572 -22Z" fill="#FFFFFF" transform="translate(842.932 250.000) scale(0.038086 -0.038086)"/>
<path d="M119 -395H323L507 225H207Z" fill="#FFFFFF" transform="translate(886.616 250.000) scale(0.038086 -0.038086)"/><path d="M128 0H428V636C428 775 529 870 667 870C711 870 770 863 797 855V1123C770 1129 731 1133 700 1133C574 1133 471 1061 430 923H418V1118H128Z" fill="url(#brandGradient)" transform="translate(95.000 345.000) scale(0.038086 -0.038086)"/>
<path d="M440 -22C605 -22 713 51 767 155H777V0H1061V753C1061 1024 827 1132 587 1132C337 1132 157 1021 100 827L375 781C399 853 470 910 586 910C698 910 761 856 761 761V756C761 683 682 675 490 656C270 635 68 563 68 313C68 92 227 -22 440 -22ZM525 189C426 189 356 234 356 321C356 411 430 454 541 470C607 479 726 495 763 521V400C763 282 665 189 525 189ZM481 1260H691L898 1571H620Z" fill="url(#brandGradient)" transform="translate(126.764 345.000) scale(0.038086 -0.038086)"/>
<path d="M128 -418H428V179H437C479 89 571 -19 754 -19C1012 -19 1209 185 1209 557C1209 939 1004 1132 756 1132C566 1132 478 1019 437 930H423V1118H128ZM662 222C509 222 421 356 421 558C421 761 508 892 662 892C819 892 902 754 902 558C902 361 818 222 662 222Z" fill="url(#brandGradient)" transform="translate(172.048 345.000) scale(0.038086 -0.038086)"/>
<path d="M128 0H428V1118H128ZM278 1264C368 1264 443 1332 443 1418C443 1503 368 1572 278 1572C187 1572 113 1503 113 1418C113 1332 187 1264 278 1264Z" fill="url(#brandGradient)" transform="translate(221.217 345.000) scale(0.038086 -0.038086)"/>
<path d="M537 -19C719 -19 812 89 853 179H868V0H1163V1490H863V930H853C813 1019 725 1132 535 1132C287 1132 81 939 81 557C81 185 279 -19 537 -19ZM629 222C473 222 389 361 389 558C389 754 471 892 629 892C783 892 869 761 869 558C869 356 782 222 629 222Z" fill="url(#brandGradient)" transform="translate(242.354 345.000) scale(0.038086 -0.038086)"/>
<path d="M628 -22C964 -22 1175 210 1175 554C1175 900 964 1132 628 1132C291 1132 81 900 81 554C81 210 291 -22 628 -22ZM628 214C468 214 387 360 387 555C387 753 468 896 628 896C788 896 870 752 870 555C870 360 788 214 628 214Z" fill="url(#brandGradient)" transform="translate(291.523 345.000) scale(0.038086 -0.038086)"/>
<path d="M572 -22C865 -22 1072 125 1072 345C1072 504 968 603 752 647L551 687C445 709 407 748 407 804C407 871 483 917 581 917C690 917 753 863 777 787L1043 834C1001 1016 842 1132 577 1132C294 1132 107 1000 107 785C107 618 213 512 429 468L622 428C720 408 766 372 766 313C766 246 695 198 581 198C458 198 386 249 357 354L78 306C117 98 302 -22 572 -22Z" fill="url(#brandGradient)" transform="translate(339.359 345.000) scale(0.038086 -0.038086)"/>
<path d="M633 -22C893 -22 1071 99 1126 285L854 336C822 250 743 204 638 204C487 204 385 298 378 481H1143V565C1143 947 910 1132 618 1132C291 1132 81 898 81 553C81 200 291 -22 633 -22ZM380 669C392 807 478 906 621 906C760 906 839 815 854 669Z" fill="url(#brandGradient)" transform="translate(401.516 345.000) scale(0.038086 -0.038086)"/>
<path d="M572 -22C865 -22 1072 125 1072 345C1072 504 968 603 752 647L551 687C445 709 407 748 407 804C407 871 483 917 581 917C690 917 753 863 777 787L1043 834C1001 1016 842 1132 577 1132C294 1132 107 1000 107 785C107 618 213 512 429 468L622 428C720 408 766 372 766 313C766 246 695 198 581 198C458 198 386 249 357 354L78 306C117 98 302 -22 572 -22Z" fill="url(#brandGradient)" transform="translate(466.452 345.000) scale(0.038086 -0.038086)"/>
<path d="M633 -22C893 -22 1071 99 1126 285L854 336C822 250 743 204 638 204C487 204 385 298 378 481H1143V565C1143 947 910 1132 618 1132C291 1132 81 898 81 553C81 200 291 -22 633 -22ZM380 669C392 807 478 906 621 906C760 906 839 815 854 669Z" fill="url(#brandGradient)" transform="translate(510.137 345.000) scale(0.038086 -0.038086)"/>
<path d="M625 -442C940 -442 1166 -294 1166 9V1118H871V930H858C817 1019 725 1132 537 1132C289 1132 81 939 81 561C81 191 284 16 536 16C717 16 805 108 846 198H869V-8C869 -155 776 -224 623 -224C477 -224 408 -159 380 -96L122 -168C171 -328 345 -442 625 -442ZM630 244C474 244 389 368 389 563C389 755 472 892 630 892C784 892 870 761 870 563C870 363 783 244 630 244Z" fill="url(#brandGradient)" transform="translate(556.602 345.000) scale(0.038086 -0.038086)"/>
<path d="M513 -14C683 -14 797 74 860 232L864 0H1148V1118H847V471C847 323 757 237 630 237C504 237 428 320 428 459V1118H128V407C128 145 281 -14 513 -14Z" fill="url(#brandGradient)" transform="translate(605.885 345.000) scale(0.038086 -0.038086)"/>
<path d="M128 0H428V636C428 775 529 870 667 870C711 870 770 863 797 855V1123C770 1129 731 1133 700 1133C574 1133 471 1061 430 923H418V1118H128Z" fill="url(#brandGradient)" transform="translate(654.444 345.000) scale(0.038086 -0.038086)"/>
<path d="M628 -22C964 -22 1175 210 1175 554C1175 900 964 1132 628 1132C291 1132 81 900 81 554C81 210 291 -22 628 -22ZM628 214C468 214 387 360 387 555C387 753 468 896 628 896C788 896 870 752 870 555C870 360 788 214 628 214Z" fill="url(#brandGradient)" transform="translate(686.208 345.000) scale(0.038086 -0.038086)"/>
<path d="M572 -22C865 -22 1072 125 1072 345C1072 504 968 603 752 647L551 687C445 709 407 748 407 804C407 871 483 917 581 917C690 917 753 863 777 787L1043 834C1001 1016 842 1132 577 1132C294 1132 107 1000 107 785C107 618 213 512 429 468L622 428C720 408 766 372 766 313C766 246 695 198 581 198C458 198 386 249 357 354L78 306C117 98 302 -22 572 -22Z" fill="url(#brandGradient)" transform="translate(734.044 345.000) scale(0.038086 -0.038086)"/>
<path d="M342 -19C440 -19 515 56 515 153C515 250 440 325 342 325C244 325 169 250 169 153C169 56 244 -19 342 -19Z" fill="url(#brandGradient)" transform="translate(777.729 345.000) scale(0.038086 -0.038086)"/><path d="M783 -20C1088 -20 1332 166 1384 469H1194C1152 266 978 156 783 156C516 156 307 363 307 744C307 1126 515 1334 783 1334C977 1334 1152 1225 1194 1021H1384C1331 1328 1085 1510 783 1510C401 1510 122 1217 122 744C122 272 401 -20 783 -20Z" fill="#D6E2FF" transform="translate(98.000 425.000) scale(0.015137 -0.015137)"/>
<path d="M158 0H338V700C338 851 456 960 617 960C665 960 714 952 725 950V1131C704 1132 660 1134 634 1134C501 1134 385 1059 344 946H332V1118H158Z" fill="#D6E2FF" transform="translate(120.645 425.000) scale(0.015137 -0.015137)"/>
<path d="M158 0H338V1118H158ZM249 1301C318 1301 375 1354 375 1420C375 1486 318 1539 249 1539C181 1539 124 1486 124 1420C124 1354 181 1301 249 1301Z" fill="#D6E2FF" transform="translate(132.315 425.000) scale(0.015137 -0.015137)"/>
<path d="M628 -24C857 -24 1024 91 1076 260L902 308C860 194 761 136 629 136C431 136 295 264 286 498H1094V573C1094 986 844 1132 607 1132C302 1132 104 893 104 550C104 206 304 -24 628 -24ZM287 650C298 821 415 972 607 972C791 972 894 840 911 650Z" fill="#D6E2FF" transform="translate(139.823 425.000) scale(0.015137 -0.015137)"/>
<path d="M338 1490H158V0H338Z" fill="#D6E2FF" transform="translate(166.615 425.000) scale(0.015137 -0.015137)"/>
<path d="M158 0H338V1118H158ZM249 1301C318 1301 375 1354 375 1420C375 1486 318 1539 249 1539C181 1539 124 1486 124 1420C124 1354 181 1301 249 1301Z" fill="#D6E2FF" transform="translate(174.123 425.000) scale(0.015137 -0.015137)"/>
<path d="M338 670C338 861 459 970 620 970C776 970 872 867 872 695V0H1052V710C1052 993 900 1132 674 1132C524 1132 404 1069 332 911L331 1118H158V0H338Z" fill="#D6E2FF" transform="translate(181.630 425.000) scale(0.015137 -0.015137)"/>
<path d="M158 0H338V412L456 523L865 0H1096L593 638L1061 1118H838L360 625H338V1490H158Z" fill="#D6E2FF" transform="translate(199.946 425.000) scale(0.015137 -0.015137)"/>
<path d="M538 -24C800 -24 979 119 979 315C979 468 884 569 681 617L512 657C381 688 324 734 324 817C324 910 424 979 557 979C701 979 764 901 795 821L958 863C907 1020 786 1132 556 1132C318 1132 142 998 142 806C142 649 239 549 442 501L628 457C738 431 792 380 792 303C792 211 692 134 536 134C402 134 311 189 279 312L108 271C148 78 308 -24 538 -24Z" fill="#D6E2FF" transform="translate(216.959 425.000) scale(0.015137 -0.015137)"/>
<path d="M577 -24C790 -24 865 111 902 173H922V0H1096V1490H916V939H902C865 998 796 1132 578 1132C299 1132 104 910 104 556C104 200 298 -24 577 -24ZM604 137C395 137 287 323 287 558C287 790 392 971 604 971C810 971 918 805 918 558C918 309 807 137 604 137Z" fill="#D6E2FF" transform="translate(242.041 425.000) scale(0.015137 -0.015137)"/>
<path d="M628 -24C857 -24 1024 91 1076 260L902 308C860 194 761 136 629 136C431 136 295 264 286 498H1094V573C1094 986 844 1132 607 1132C302 1132 104 893 104 550C104 206 304 -24 628 -24ZM287 650C298 821 415 972 607 972C791 972 894 840 911 650Z" fill="#D6E2FF" transform="translate(261.022 425.000) scale(0.015137 -0.015137)"/>
<path d="M158 -418H338V173H352C389 111 464 -24 677 -24C956 -24 1150 200 1150 556C1150 910 955 1132 676 1132C458 1132 389 998 352 939H332V1118H158ZM650 137C447 137 336 309 336 558C336 805 444 971 650 971C862 971 967 790 967 558C967 323 859 137 650 137Z" fill="#D6E2FF" transform="translate(287.814 425.000) scale(0.015137 -0.015137)"/>
<path d="M471 -26C660 -26 765 73 803 152H815V0H992V737C992 1086 723 1132 573 1132C400 1132 208 1070 122 867L295 810C330 888 417 974 578 974C733 974 812 894 812 755V749C812 666 724 672 525 647C318 621 90 574 90 318C90 98 259 -26 471 -26ZM502 133C368 133 271 193 271 309C271 436 386 478 517 495C586 504 782 524 812 559V404C812 267 701 133 502 133Z" fill="#D6E2FF" transform="translate(306.796 425.000) scale(0.015137 -0.015137)"/>
<path d="M611 -442C883 -442 1098 -318 1098 -29V1118H923V939H906C868 999 796 1132 580 1132C301 1132 104 910 104 564C104 213 308 18 576 18C792 18 863 141 901 205H918V-19C918 -203 789 -285 611 -285C414 -285 344 -185 297 -120L151 -214C220 -337 363 -442 611 -442ZM606 178C396 178 287 338 287 568C287 791 393 971 606 971C812 971 920 805 920 568C920 324 809 178 606 178Z" fill="#D6E2FF" transform="translate(324.203 425.000) scale(0.015137 -0.015137)"/>
<path d="M471 -26C660 -26 765 73 803 152H815V0H992V737C992 1086 723 1132 573 1132C400 1132 208 1070 122 867L295 810C330 888 417 974 578 974C733 974 812 894 812 755V749C812 666 724 672 525 647C318 621 90 574 90 318C90 98 259 -26 471 -26ZM502 133C368 133 271 193 271 309C271 436 386 478 517 495C586 504 782 524 812 559V404C812 267 701 133 502 133Z" fill="#D6E2FF" transform="translate(343.215 425.000) scale(0.015137 -0.015137)"/>
<path d="M158 0H338V704C338 882 457 974 588 974C714 974 807 891 807 767V0H987V730C987 871 1079 974 1230 974C1350 974 1456 910 1456 749V0H1636V754C1636 1013 1478 1138 1284 1138C1122 1138 985 1051 932 910C892 1048 794 1138 647 1138C515 1138 389 1064 334 913L333 1118H158Z" fill="#D6E2FF" transform="translate(360.622 425.000) scale(0.015137 -0.015137)"/>
<path d="M628 -24C857 -24 1024 91 1076 260L902 308C860 194 761 136 629 136C431 136 295 264 286 498H1094V573C1094 986 844 1132 607 1132C302 1132 104 893 104 550C104 206 304 -24 628 -24ZM287 650C298 821 415 972 607 972C791 972 894 840 911 650Z" fill="#D6E2FF" transform="translate(387.777 425.000) scale(0.015137 -0.015137)"/>
<path d="M338 670C338 861 459 970 620 970C776 970 872 867 872 695V0H1052V710C1052 993 900 1132 674 1132C524 1132 404 1069 332 911L331 1118H158V0H338Z" fill="#D6E2FF" transform="translate(405.851 425.000) scale(0.015137 -0.015137)"/>
<path d="M598 1118H368V1384H188V1118H20V964H188V276C188 93 302 -14 495 -14C541 -14 592 -7 629 6L592 158C562 152 523 146 500 146C405 146 368 190 368 290V964H598Z" fill="#D6E2FF" transform="translate(424.166 425.000) scale(0.015137 -0.015137)"/>
<path d="M613 -24C918 -24 1124 207 1124 552C1124 902 918 1132 613 1132C309 1132 104 902 104 552C104 207 309 -24 613 -24ZM613 137C390 137 287 332 287 552C287 775 390 971 613 971C839 971 942 774 942 552C942 332 839 137 613 137Z" fill="#D6E2FF" transform="translate(434.308 425.000) scale(0.015137 -0.015137)"/>
<path d="M628 -24C857 -24 1024 91 1076 260L902 308C860 194 761 136 629 136C431 136 295 264 286 498H1094V573C1094 986 844 1132 607 1132C302 1132 104 893 104 550C104 206 304 -24 628 -24ZM287 650C298 821 415 972 607 972C791 972 894 840 911 650Z" fill="#D6E2FF" transform="translate(461.614 425.000) scale(0.015137 -0.015137)"/>
<path d="M471 -26C660 -26 765 73 803 152H815V0H992V737C992 1086 723 1132 573 1132C400 1132 208 1070 122 867L295 810C330 888 417 974 578 974C733 974 812 894 812 755V749C812 666 724 672 525 647C318 621 90 574 90 318C90 98 259 -26 471 -26ZM502 133C368 133 271 193 271 309C271 436 386 478 517 495C586 504 782 524 812 559V404C812 267 701 133 502 133Z" fill="#D6E2FF" transform="translate(488.406 425.000) scale(0.015137 -0.015137)"/>
<path d="M613 -24C832 -24 1010 95 1070 294L898 343C865 222 763 137 613 137C390 137 287 332 287 552C287 775 390 971 613 971C760 971 860 889 893 774L1066 823C1005 1018 829 1132 613 1132C309 1132 104 902 104 552C104 207 309 -24 613 -24Z" fill="#D6E2FF" transform="translate(505.813 425.000) scale(0.015137 -0.015137)"/>
<path d="M613 -24C918 -24 1124 207 1124 552C1124 902 918 1132 613 1132C309 1132 104 902 104 552C104 207 309 -24 613 -24ZM613 137C390 137 287 332 287 552C287 775 390 971 613 971C839 971 942 774 942 552C942 332 839 137 613 137Z" fill="#D6E2FF" transform="translate(523.523 425.000) scale(0.015137 -0.015137)"/>
<path d="M158 0H338V704C338 882 457 974 588 974C714 974 807 891 807 767V0H987V730C987 871 1079 974 1230 974C1350 974 1456 910 1456 749V0H1636V754C1636 1013 1478 1138 1284 1138C1122 1138 985 1051 932 910C892 1048 794 1138 647 1138C515 1138 389 1064 334 913L333 1118H158Z" fill="#D6E2FF" transform="translate(542.111 425.000) scale(0.015137 -0.015137)"/>
<path d="M158 -418H338V173H352C389 111 464 -24 677 -24C956 -24 1150 200 1150 556C1150 910 955 1132 676 1132C458 1132 389 998 352 939H332V1118H158ZM650 137C447 137 336 309 336 558C336 805 444 971 650 971C862 971 967 790 967 558C967 323 859 137 650 137Z" fill="#D6E2FF" transform="translate(569.267 425.000) scale(0.015137 -0.015137)"/>
<path d="M471 -26C660 -26 765 73 803 152H815V0H992V737C992 1086 723 1132 573 1132C400 1132 208 1070 122 867L295 810C330 888 417 974 578 974C733 974 812 894 812 755V749C812 666 724 672 525 647C318 621 90 574 90 318C90 98 259 -26 471 -26ZM502 133C368 133 271 193 271 309C271 436 386 478 517 495C586 504 782 524 812 559V404C812 267 701 133 502 133Z" fill="#D6E2FF" transform="translate(588.248 425.000) scale(0.015137 -0.015137)"/>
<path d="M338 670C338 861 459 970 620 970C776 970 872 867 872 695V0H1052V710C1052 993 900 1132 674 1132C524 1132 404 1069 332 911L331 1118H158V0H338Z" fill="#D6E2FF" transform="translate(605.655 425.000) scale(0.015137 -0.015137)"/>
<path d="M338 670C338 861 459 970 620 970C776 970 872 867 872 695V0H1053V710C1053 993 900 1132 674 1132C528 1132 411 1073 338 924V1490H158V0H338Z" fill="#D6E2FF" transform="translate(623.971 425.000) scale(0.015137 -0.015137)"/>
<path d="M628 -24C857 -24 1024 91 1076 260L902 308C860 194 761 136 629 136C431 136 295 264 286 498H1094V573C1094 986 844 1132 607 1132C302 1132 104 893 104 550C104 206 304 -24 628 -24ZM287 650C298 821 415 972 607 972C791 972 894 840 911 650Z" fill="#D6E2FF" transform="translate(642.301 425.000) scale(0.015137 -0.015137)"/><path d="M158 0H338V700C338 851 456 960 617 960C665 960 714 952 725 950V1131C704 1132 660 1134 634 1134C501 1134 385 1059 344 946H332V1118H158Z" fill="#D6E2FF" transform="translate(98.000 469.000) scale(0.015137 -0.015137)"/>
<path d="M628 -24C857 -24 1024 91 1076 260L902 308C860 194 761 136 629 136C431 136 295 264 286 498H1094V573C1094 986 844 1132 607 1132C302 1132 104 893 104 550C104 206 304 -24 628 -24ZM287 650C298 821 415 972 607 972C791 972 894 840 911 650Z" fill="#D6E2FF" transform="translate(109.670 469.000) scale(0.015137 -0.015137)"/>
<path d="M613 -24C832 -24 1010 95 1070 294L898 343C865 222 763 137 613 137C390 137 287 332 287 552C287 775 390 971 613 971C760 971 860 889 893 774L1066 823C1005 1018 829 1132 613 1132C309 1132 104 902 104 552C104 207 309 -24 613 -24Z" fill="#D6E2FF" transform="translate(127.744 469.000) scale(0.015137 -0.015137)"/>
<path d="M628 -24C857 -24 1024 91 1076 260L902 308C860 194 761 136 629 136C431 136 295 264 286 498H1094V573C1094 986 844 1132 607 1132C302 1132 104 893 104 550C104 206 304 -24 628 -24ZM287 650C298 821 415 972 607 972C791 972 894 840 911 650Z" fill="#D6E2FF" transform="translate(145.454 469.000) scale(0.015137 -0.015137)"/>
<path d="M677 -24C956 -24 1150 200 1150 556C1150 910 955 1132 676 1132C458 1132 389 998 352 939H338V1490H158V0H332V173H352C389 111 464 -24 677 -24ZM650 137C447 137 336 309 336 558C336 805 444 971 650 971C862 971 967 790 967 558C967 323 859 137 650 137Z" fill="#D6E2FF" transform="translate(163.527 469.000) scale(0.015137 -0.015137)"/>
<path d="M158 0H338V1118H158ZM249 1301C318 1301 375 1354 375 1420C375 1486 318 1539 249 1539C181 1539 124 1486 124 1420C124 1354 181 1301 249 1301Z" fill="#D6E2FF" transform="translate(182.508 469.000) scale(0.015137 -0.015137)"/>
<path d="M158 0H338V704C338 882 457 974 588 974C714 974 807 891 807 767V0H987V730C987 871 1079 974 1230 974C1350 974 1456 910 1456 749V0H1636V754C1636 1013 1478 1138 1284 1138C1122 1138 985 1051 932 910C892 1048 794 1138 647 1138C515 1138 389 1064 334 913L333 1118H158Z" fill="#D6E2FF" transform="translate(190.016 469.000) scale(0.015137 -0.015137)"/>
<path d="M628 -24C857 -24 1024 91 1076 260L902 308C860 194 761 136 629 136C431 136 295 264 286 498H1094V573C1094 986 844 1132 607 1132C302 1132 104 893 104 550C104 206 304 -24 628 -24ZM287 650C298 821 415 972 607 972C791 972 894 840 911 650Z" fill="#D6E2FF" transform="translate(217.171 469.000) scale(0.015137 -0.015137)"/>
<path d="M338 670C338 861 459 970 620 970C776 970 872 867 872 695V0H1052V710C1052 993 900 1132 674 1132C524 1132 404 1069 332 911L331 1118H158V0H338Z" fill="#D6E2FF" transform="translate(235.245 469.000) scale(0.015137 -0.015137)"/>
<path d="M598 1118H368V1384H188V1118H20V964H188V276C188 93 302 -14 495 -14C541 -14 592 -7 629 6L592 158C562 152 523 146 500 146C405 146 368 190 368 290V964H598Z" fill="#D6E2FF" transform="translate(253.560 469.000) scale(0.015137 -0.015137)"/>
<path d="M613 -24C918 -24 1124 207 1124 552C1124 902 918 1132 613 1132C309 1132 104 902 104 552C104 207 309 -24 613 -24ZM613 137C390 137 287 332 287 552C287 775 390 971 613 971C839 971 942 774 942 552C942 332 839 137 613 137Z" fill="#D6E2FF" transform="translate(263.702 469.000) scale(0.015137 -0.015137)"/>
<path d="M538 -24C800 -24 979 119 979 315C979 468 884 569 681 617L512 657C381 688 324 734 324 817C324 910 424 979 557 979C701 979 764 901 795 821L958 863C907 1020 786 1132 556 1132C318 1132 142 998 142 806C142 649 239 549 442 501L628 457C738 431 792 380 792 303C792 211 692 134 536 134C402 134 311 189 279 312L108 271C148 78 308 -24 538 -24Z" fill="#D6E2FF" transform="translate(282.290 469.000) scale(0.015137 -0.015137)"/>
<path d="M613 -24C832 -24 1010 95 1070 294L898 343C865 222 763 137 613 137C390 137 287 332 287 552C287 775 390 971 613 971C760 971 860 889 893 774L1066 823C1005 1018 829 1132 613 1132C309 1132 104 902 104 552C104 207 309 -24 613 -24Z" fill="#D6E2FF" transform="translate(307.371 469.000) scale(0.015137 -0.015137)"/>
<path d="M613 -24C918 -24 1124 207 1124 552C1124 902 918 1132 613 1132C309 1132 104 902 104 552C104 207 309 -24 613 -24ZM613 137C390 137 287 332 287 552C287 775 390 971 613 971C839 971 942 774 942 552C942 332 839 137 613 137Z" fill="#D6E2FF" transform="translate(325.081 469.000) scale(0.015137 -0.015137)"/>
<path d="M158 0H338V704C338 882 457 974 588 974C714 974 807 891 807 767V0H987V730C987 871 1079 974 1230 974C1350 974 1456 910 1456 749V0H1636V754C1636 1013 1478 1138 1284 1138C1122 1138 985 1051 932 910C892 1048 794 1138 647 1138C515 1138 389 1064 334 913L333 1118H158Z" fill="#D6E2FF" transform="translate(343.669 469.000) scale(0.015137 -0.015137)"/>
<path d="M158 -418H338V173H352C389 111 464 -24 677 -24C956 -24 1150 200 1150 556C1150 910 955 1132 676 1132C458 1132 389 998 352 939H332V1118H158ZM650 137C447 137 336 309 336 558C336 805 444 971 650 971C862 971 967 790 967 558C967 323 859 137 650 137Z" fill="#D6E2FF" transform="translate(379.543 469.000) scale(0.015137 -0.015137)"/>
<path d="M158 0H338V700C338 851 456 960 617 960C665 960 714 952 725 950V1131C704 1132 660 1134 634 1134C501 1134 385 1059 344 946H332V1118H158Z" fill="#D6E2FF" transform="translate(398.524 469.000) scale(0.015137 -0.015137)"/>
<path d="M471 -26C660 -26 765 73 803 152H815V0H992V737C992 1086 723 1132 573 1132C400 1132 208 1070 122 867L295 810C330 888 417 974 578 974C733 974 812 894 812 755V749C812 666 724 672 525 647C318 621 90 574 90 318C90 98 259 -26 471 -26ZM502 133C368 133 271 193 271 309C271 436 386 478 517 495C586 504 782 524 812 559V404C812 267 701 133 502 133Z" fill="#D6E2FF" transform="translate(410.195 469.000) scale(0.015137 -0.015137)"/>
<path d="M598 1118H368V1384H188V1118H20V964H188V276C188 93 302 -14 495 -14C541 -14 592 -7 629 6L592 158C562 152 523 146 500 146C405 146 368 190 368 290V964H598Z" fill="#D6E2FF" transform="translate(427.602 469.000) scale(0.015137 -0.015137)"/>
<path d="M158 0H338V1118H158ZM249 1301C318 1301 375 1354 375 1420C375 1486 318 1539 249 1539C181 1539 124 1486 124 1420C124 1354 181 1301 249 1301Z" fill="#D6E2FF" transform="translate(437.744 469.000) scale(0.015137 -0.015137)"/>
<path d="M613 -24C832 -24 1010 95 1070 294L898 343C865 222 763 137 613 137C390 137 287 332 287 552C287 775 390 971 613 971C760 971 860 889 893 774L1066 823C1005 1018 829 1132 613 1132C309 1132 104 902 104 552C104 207 309 -24 613 -24Z" fill="#D6E2FF" transform="translate(445.251 469.000) scale(0.015137 -0.015137)"/>
<path d="M158 0H338V1118H158ZM249 1301C318 1301 375 1354 375 1420C375 1486 318 1539 249 1539C181 1539 124 1486 124 1420C124 1354 181 1301 249 1301Z" fill="#D6E2FF" transform="translate(462.961 469.000) scale(0.015137 -0.015137)"/>
<path d="M577 -24C790 -24 865 111 902 173H922V0H1096V1490H916V939H902C865 998 796 1132 578 1132C299 1132 104 910 104 556C104 200 298 -24 577 -24ZM604 137C395 137 287 323 287 558C287 790 392 971 604 971C810 971 918 805 918 558C918 309 807 137 604 137Z" fill="#D6E2FF" transform="translate(470.469 469.000) scale(0.015137 -0.015137)"/>
<path d="M471 -26C660 -26 765 73 803 152H815V0H992V737C992 1086 723 1132 573 1132C400 1132 208 1070 122 867L295 810C330 888 417 974 578 974C733 974 812 894 812 755V749C812 666 724 672 525 647C318 621 90 574 90 318C90 98 259 -26 471 -26ZM502 133C368 133 271 193 271 309C271 436 386 478 517 495C586 504 782 524 812 559V404C812 267 701 133 502 133Z" fill="#D6E2FF" transform="translate(489.451 469.000) scale(0.015137 -0.015137)"/>
<path d="M577 -24C790 -24 865 111 902 173H922V0H1096V1490H916V939H902C865 998 796 1132 578 1132C299 1132 104 910 104 556C104 200 298 -24 577 -24ZM604 137C395 137 287 323 287 558C287 790 392 971 604 971C810 971 918 805 918 558C918 309 807 137 604 137Z" fill="#D6E2FF" transform="translate(506.858 469.000) scale(0.015137 -0.015137)"/>
<path d="M628 -24C857 -24 1024 91 1076 260L902 308C860 194 761 136 629 136C431 136 295 264 286 498H1094V573C1094 986 844 1132 607 1132C302 1132 104 893 104 550C104 206 304 -24 628 -24ZM287 650C298 821 415 972 607 972C791 972 894 840 911 650Z" fill="#D6E2FF" transform="translate(525.839 469.000) scale(0.015137 -0.015137)"/>
<path d="M295 -13C370 -13 430 47 430 122C430 197 370 257 295 257C220 257 160 197 160 122C160 47 220 -13 295 -13Z" fill="#D6E2FF" transform="translate(543.913 469.000) scale(0.015137 -0.015137)"/><g filter="url(#softShadow)"><rect x="815" y="120" width="285" height="285" rx="70" fill="#071B4A"/><rect x="815" y="120" width="285" height="285" rx="70" fill="url(#glow)"/></g><g transform="translate(814 92) scale(0.56)" fill="none" stroke="url(#brandGradient)" stroke-width="30" stroke-linecap="round" stroke-linejoin="round">
<path d="M40 256 H118 L178 142 L250 370 L310 256 H352"/>
<path d="M322 196 H392 C431 196 458 222 458 256 C458 290 431 316 392 316 H350"/>
<path d="M350 256 H407"/>
</g>
</svg>