<svg xmlns="http://www.w3.org/2000/svg" width="24" height="24" viewBox="0 0 24 24" fill="none" color="#071B4A"><g fill="none" stroke="currentColor" stroke-width="1.8" stroke-linecap="round" stroke-linejoin="round"><path d="M20 11.7A8 8 0 0 1 8.2 18.8L4 20l1.2-4.1A8 8 0 1 1 20 11.7Z"/><path d="M9.2 8.4c.3-.6.6-.6.9-.6h.5c.2 0 .4.1.5.5l.8 1.9c.1.3.1.5-.1.7l-.6.8c-.2.2-.2.4 0 .7.5.9 1.2 1.7 2.1 2.2.3.2.5.2.7 0l.9-1c.2-.2.4-.3.7-.2l2 .9c.3.1.5.3.5.6 0 .6-.3 1.4-.8 1.8-.5.5-1.4.8-2.4.6-1.7-.4-3.7-1.4-5.4-3.1-1.3-1.3-2.2-2.8-2.6-4-.3-.9.1-1.6.3-2Z"/></g></svg>