<svg xmlns="http://www.w3.org/2000/svg" width="1200" height="1050" viewBox="0 0 1200 1050" fill="none">
<defs>
<linearGradient id="brandGradient" x1="0%" y1="0%" x2="100%" y2="100%">
  <stop offset="0%" stop-color="#19D5D8"/>
  <stop offset="52%" stop-color="#15AFFF"/>
  <stop offset="100%" stop-color="#2563FF"/>
</linearGradient>
<linearGradient id="bgGradient" x1="0%" y1="0%" x2="100%" y2="100%">
  <stop offset="0%" stop-color="#0C2A6C"/>
  <stop offset="100%" stop-color="#04102B"/>
</linearGradient>
<radialGradient id="glow" cx="50%" cy="45%" r="60%">
  <stop offset="0%" stop-color="#1B78FF" stop-opacity="0.28"/>
  <stop offset="100%" stop-color="#1B78FF" stop-opacity="0"/>
</radialGradient>
<filter id="softShadow" x="-30%" y="-30%" width="160%" height="160%">
  <feDropShadow dx="0" dy="12" stdDeviation="20" flood-color="#001038" flood-opacity="0.28"/>
</filter>

</defs>

<g transform="translate(347 80) scale(1.02)" fill="none" stroke="url(#brandGradient)" stroke-width="30" stroke-linecap="round" stroke-linejoin="round">
<path d="M40 256 H118 L178 142 L250 370 L310 256 H352"/>
<path d="M322 196 H392 C431 196 458 222 458 256 C458 290 431 316 392 316 H350"/>
<path d="M350 256 H407"/>
</g><path d="M571 0H970L1480 1490H1143L913 771C868 621 822 449 772 246C721 447 673 621 626 771L388 1490H49Z" fill="#071B4A" transform="translate(136.895 735.000) scale(0.080566 -0.080566)"/>
<path d="M128 0H428V1118H128ZM278 1264C368 1264 443 1332 443 1418C443 1503 368 1572 278 1572C187 1572 113 1503 113 1418C113 1332 187 1264 278 1264Z" fill="#071B4A" transform="translate(260.081 735.000) scale(0.080566 -0.080566)"/>
<path d="M537 -19C719 -19 812 89 853 179H868V0H1163V1490H863V930H853C813 1019 725 1132 535 1132C287 1132 81 939 81 557C81 185 279 -19 537 -19ZM629 222C473 222 389 361 389 558C389 754 471 892 629 892C783 892 869 761 869 558C869 356 782 222 629 222Z" fill="#071B4A" transform="translate(304.795 735.000) scale(0.080566 -0.080566)"/>
<path d="M440 -22C605 -22 713 51 767 155H777V0H1061V753C1061 1024 827 1132 587 1132C337 1132 157 1021 100 827L375 781C399 853 470 910 586 910C698 910 761 856 761 761V756C761 683 682 675 490 656C270 635 68 563 68 313C68 92 227 -22 440 -22ZM525 189C426 189 356 234 356 321C356 411 430 454 541 470C607 479 726 495 763 521V400C763 282 665 189 525 189Z" fill="#071B4A" transform="translate(408.806 735.000) scale(0.080566 -0.080566)"/>
<path d="M428 1490H128V0H428Z" fill="#071B4A" transform="translate(504.600 735.000) scale(0.080566 -0.080566)"/>
<path d="M120 -396C163 -413 237 -426 316 -426C540 -426 658 -313 726 -132L1201 1118H886L690 538C658 442 632 346 609 246C588 345 568 441 538 538L350 1118H31L451 -3L443 -63C430 -175 347 -212 226 -179L189 -170Z" fill="#071B4A" transform="translate(549.314 735.000) scale(0.080566 -0.080566)"/>
<path d="M572 -22C865 -22 1072 125 1072 345C1072 504 968 603 752 647L551 687C445 709 407 748 407 804C407 871 483 917 581 917C690 917 753 863 777 787L1043 834C1001 1016 842 1132 577 1132C294 1132 107 1000 107 785C107 618 213 512 429 468L622 428C720 408 766 372 766 313C766 246 695 198 581 198C458 198 386 249 357 354L78 306C117 98 302 -22 572 -22Z" fill="#071B4A" transform="translate(648.652 735.000) scale(0.080566 -0.080566)"/><path d="M135 0H440V487H709C1052 487 1249 692 1249 987C1249 1280 1055 1490 716 1490H135ZM440 733V1238H659C846 1238 934 1137 934 987C934 837 846 733 660 733Z" fill="url(#brandGradient)" transform="translate(761.062 735.000) scale(0.080566 -0.080566)"/>
<path d="M440 -22C605 -22 713 51 767 155H777V0H1061V753C1061 1024 827 1132 587 1132C337 1132 157 1021 100 827L375 781C399 853 470 910 586 910C698 910 761 856 761 761V756C761 683 682 675 490 656C270 635 68 563 68 313C68 92 227 -22 440 -22ZM525 189C426 189 356 234 356 321C356 411 430 454 541 470C607 479 726 495 763 521V400C763 282 665 189 525 189Z" fill="url(#brandGradient)" transform="translate(867.974 735.000) scale(0.080566 -0.080566)"/>
<path d="M120 -396C163 -413 237 -426 316 -426C540 -426 658 -313 726 -132L1201 1118H886L690 538C658 442 632 346 609 246C588 345 568 441 538 538L350 1118H31L451 -3L443 -63C430 -175 347 -212 226 -179L189 -170Z" fill="url(#brandGradient)" transform="translate(963.767 735.000) scale(0.080566 -0.080566)"/><path d="M611 -442C883 -442 1098 -318 1098 -29V1118H923V939H906C868 999 796 1132 580 1132C301 1132 104 910 104 564C104 213 308 18 576 18C792 18 863 141 901 205H918V-19C918 -203 789 -285 611 -285C414 -285 344 -185 297 -120L151 -214C220 -337 363 -442 611 -442ZM606 178C396 178 287 338 287 568C287 791 393 971 606 971C812 971 920 805 920 568C920 324 809 178 606 178Z" fill="#7383A7" transform="translate(202.686 865.000) scale(0.026367 -0.026367)"/>
<path d="M628 -24C857 -24 1024 91 1076 260L902 308C860 194 761 136 629 136C431 136 295 264 286 498H1094V573C1094 986 844 1132 607 1132C302 1132 104 893 104 550C104 206 304 -24 628 -24ZM287 650C298 821 415 972 607 972C791 972 894 840 911 650Z" fill="#7383A7" transform="translate(235.803 865.000) scale(0.026367 -0.026367)"/>
<path d="M158 0H338V700C338 851 456 960 617 960C665 960 714 952 725 950V1131C704 1132 660 1134 634 1134C501 1134 385 1059 344 946H332V1118H158Z" fill="#7383A7" transform="translate(267.286 865.000) scale(0.026367 -0.026367)"/>
<path d="M471 -26C660 -26 765 73 803 152H815V0H992V737C992 1086 723 1132 573 1132C400 1132 208 1070 122 867L295 810C330 888 417 974 578 974C733 974 812 894 812 755V749C812 666 724 672 525 647C318 621 90 574 90 318C90 98 259 -26 471 -26ZM502 133C368 133 271 193 271 309C271 436 386 478 517 495C586 504 782 524 812 559V404C812 267 701 133 502 133Z" fill="#7383A7" transform="translate(287.615 865.000) scale(0.026367 -0.026367)"/>
<path d="M577 -24C790 -24 865 111 902 173H922V0H1096V1490H916V939H902C865 998 796 1132 578 1132C299 1132 104 910 104 556C104 200 298 -24 577 -24ZM604 137C395 137 287 323 287 558C287 790 392 971 604 971C810 971 918 805 918 558C918 309 807 137 604 137Z" fill="#7383A7" transform="translate(317.937 865.000) scale(0.026367 -0.026367)"/>
<path d="M613 -24C918 -24 1124 207 1124 552C1124 902 918 1132 613 1132C309 1132 104 902 104 552C104 207 309 -24 613 -24ZM613 137C390 137 287 332 287 552C287 775 390 971 613 971C839 971 942 774 942 552C942 332 839 137 613 137Z" fill="#7383A7" transform="translate(351.001 865.000) scale(0.026367 -0.026367)"/>
<path d="M158 0H338V700C338 851 456 960 617 960C665 960 714 952 725 950V1131C704 1132 660 1134 634 1134C501 1134 385 1059 344 946H332V1118H158Z" fill="#7383A7" transform="translate(383.380 865.000) scale(0.026367 -0.026367)"/>
<path d="M577 -24C790 -24 865 111 902 173H922V0H1096V1490H916V939H902C865 998 796 1132 578 1132C299 1132 104 910 104 556C104 200 298 -24 577 -24ZM604 137C395 137 287 323 287 558C287 790 392 971 604 971C810 971 918 805 918 558C918 309 807 137 604 137Z" fill="#7383A7" transform="translate(418.897 865.000) scale(0.026367 -0.026367)"/>
<path d="M628 -24C857 -24 1024 91 1076 260L902 308C860 194 761 136 629 136C431 136 295 264 286 498H1094V573C1094 986 844 1132 607 1132C302 1132 104 893 104 550C104 206 304 -24 628 -24ZM287 650C298 821 415 972 607 972C791 972 894 840 911 650Z" fill="#7383A7" transform="translate(451.961 865.000) scale(0.026367 -0.026367)"/>
<path d="M338 1490H158V0H338Z" fill="#7383A7" transform="translate(498.631 865.000) scale(0.026367 -0.026367)"/>
<path d="M158 0H338V1118H158ZM249 1301C318 1301 375 1354 375 1420C375 1486 318 1539 249 1539C181 1539 124 1486 124 1420C124 1354 181 1301 249 1301Z" fill="#7383A7" transform="translate(511.709 865.000) scale(0.026367 -0.026367)"/>
<path d="M338 670C338 861 459 970 620 970C776 970 872 867 872 695V0H1052V710C1052 993 900 1132 674 1132C524 1132 404 1069 332 911L331 1118H158V0H338Z" fill="#7383A7" transform="translate(524.788 865.000) scale(0.026367 -0.026367)"/>
<path d="M158 0H338V412L456 523L865 0H1096L593 638L1061 1118H838L360 625H338V1490H158Z" fill="#7383A7" transform="translate(556.692 865.000) scale(0.026367 -0.026367)"/>
<path d="M538 -24C800 -24 979 119 979 315C979 468 884 569 681 617L512 657C381 688 324 734 324 817C324 910 424 979 557 979C701 979 764 901 795 821L958 863C907 1020 786 1132 556 1132C318 1132 142 998 142 806C142 649 239 549 442 501L628 457C738 431 792 380 792 303C792 211 692 134 536 134C402 134 311 189 279 312L108 271C148 78 308 -24 538 -24Z" fill="#7383A7" transform="translate(586.329 865.000) scale(0.026367 -0.026367)"/>
<path d="M577 -24C790 -24 865 111 902 173H922V0H1096V1490H916V939H902C865 998 796 1132 578 1132C299 1132 104 910 104 556C104 200 298 -24 577 -24ZM604 137C395 137 287 323 287 558C287 790 392 971 604 971C810 971 918 805 918 558C918 309 807 137 604 137Z" fill="#7383A7" transform="translate(630.019 865.000) scale(0.026367 -0.026367)"/>
<path d="M628 -24C857 -24 1024 91 1076 260L902 308C860 194 761 136 629 136C431 136 295 264 286 498H1094V573C1094 986 844 1132 607 1132C302 1132 104 893 104 550C104 206 304 -24 628 -24ZM287 650C298 821 415 972 607 972C791 972 894 840 911 650Z" fill="#7383A7" transform="translate(663.083 865.000) scale(0.026367 -0.026367)"/>
<path d="M158 -418H338V173H352C389 111 464 -24 677 -24C956 -24 1150 200 1150 556C1150 910 955 1132 676 1132C458 1132 389 998 352 939H332V1118H158ZM650 137C447 137 336 309 336 558C336 805 444 971 650 971C862 971 967 790 967 558C967 323 859 137 650 137Z" fill="#7383A7" transform="translate(709.753 865.000) scale(0.026367 -0.026367)"/>
<path d="M471 -26C660 -26 765 73 803 152H815V0H992V737C992 1086 723 1132 573 1132C400 1132 208 1070 122 867L295 810C330 888 417 974 578 974C733 974 812 894 812 755V749C812 666 724 672 525 647C318 621 90 574 90 318C90 98 259 -26 471 -26ZM502 133C368 133 271 193 271 309C271 436 386 478 517 495C586 504 782 524 812 559V404C812 267 701 133 502 133Z" fill="#7383A7" transform="translate(742.818 865.000) scale(0.026367 -0.026367)"/>
<path d="M611 -442C883 -442 1098 -318 1098 -29V1118H923V939H906C868 999 796 1132 580 1132C301 1132 104 910 104 564C104 213 308 18 576 18C792 18 863 141 901 205H918V-19C918 -203 789 -285 611 -285C414 -285 344 -185 297 -120L151 -214C220 -337 363 -442 611 -442ZM606 178C396 178 287 338 287 568C287 791 393 971 606 971C812 971 920 805 920 568C920 324 809 178 606 178Z" fill="#7383A7" transform="translate(773.140 865.000) scale(0.026367 -0.026367)"/>
<path d="M471 -26C660 -26 765 73 803 152H815V0H992V737C992 1086 723 1132 573 1132C400 1132 208 1070 122 867L295 810C330 888 417 974 578 974C733 974 812 894 812 755V749C812 666 724 672 525 647C318 621 90 574 90 318C90 98 259 -26 471 -26ZM502 133C368 133 271 193 271 309C271 436 386 478 517 495C586 504 782 524 812 559V404C812 267 701 133 502 133Z" fill="#7383A7" transform="translate(806.257 865.000) scale(0.026367 -0.026367)"/>
<path d="M158 0H338V704C338 882 457 974 588 974C714 974 807 891 807 767V0H987V730C987 871 1079 974 1230 974C1350 974 1456 910 1456 749V0H1636V754C1636 1013 1478 1138 1284 1138C1122 1138 985 1051 932 910C892 1048 794 1138 647 1138C515 1138 389 1064 334 913L333 1118H158Z" fill="#7383A7" transform="translate(836.580 865.000) scale(0.026367 -0.026367)"/>
<path d="M628 -24C857 -24 1024 91 1076 260L902 308C860 194 761 136 629 136C431 136 295 264 286 498H1094V573C1094 986 844 1132 607 1132C302 1132 104 893 104 550C104 206 304 -24 628 -24ZM287 650C298 821 415 972 607 972C791 972 894 840 911 650Z" fill="#7383A7" transform="translate(883.882 865.000) scale(0.026367 -0.026367)"/>
<path d="M338 670C338 861 459 970 620 970C776 970 872 867 872 695V0H1052V710C1052 993 900 1132 674 1132C524 1132 404 1069 332 911L331 1118H158V0H338Z" fill="#7383A7" transform="translate(915.365 865.000) scale(0.026367 -0.026367)"/>
<path d="M598 1118H368V1384H188V1118H20V964H188V276C188 93 302 -14 495 -14C541 -14 592 -7 629 6L592 158C562 152 523 146 500 146C405 146 368 190 368 290V964H598Z" fill="#7383A7" transform="translate(947.269 865.000) scale(0.026367 -0.026367)"/>
<path d="M613 -24C918 -24 1124 207 1124 552C1124 902 918 1132 613 1132C309 1132 104 902 104 552C104 207 309 -24 613 -24ZM613 137C390 137 287 332 287 552C287 775 390 971 613 971C839 971 942 774 942 552C942 332 839 137 613 137Z" fill="#7383A7" transform="translate(964.935 865.000) scale(0.026367 -0.026367)"/>
</svg>